<svg xmlns="http://www.w3.org/2000/svg" xmlns:xlink="http://www.w3.org/1999/xlink" viewBox="0 0 402.84 464.91"><defs><style>.cls-1,.cls-5,.cls-6{fill:none;}.cls-2{fill:#e6e8e6;}.cls-3{clip-path:url(#clip-path);}.cls-4{fill:#c4c7c5;}.cls-5,.cls-6{stroke:#fff;stroke-linecap:round;stroke-width:2px;}.cls-5{stroke-miterlimit:10;}.cls-6{stroke-linejoin:round;}.cls-7{clip-path:url(#clip-path-2);}.cls-8{fill:#080708;}.cls-9{clip-path:url(#clip-path-3);}.cls-10{fill:#00aeef;}</style><clipPath id="clip-path"><path class="cls-1" d="M42.94,294.45H65.85A7.53,7.53,0,0,1,73.39,302V443.15a19,19,0,0,1-19,19h0a19,19,0,0,1-19-19V302a7.53,7.53,0,0,1,7.53-7.53Z"/></clipPath><clipPath id="clip-path-2"><rect class="cls-1" x="54.33" y="267.68" width="52.84" height="100.48"/></clipPath><clipPath id="clip-path-3"><rect class="cls-1" x="1.49" y="267.68" width="52.84" height="100.48" transform="translate(55.82 635.84) rotate(-180)"/></clipPath></defs><g id="Layer_2" data-name="Layer 2"><g id="boormachine"><g id="drill"><path class="cls-2" d="M42.94,294.45H65.85A7.53,7.53,0,0,1,73.39,302V443.15a19,19,0,0,1-19,19h0a19,19,0,0,1-19-19V302a7.53,7.53,0,0,1,7.53-7.53Z"/><g class="cls-3"><rect class="cls-4" x="10.96" y="415.27" width="83.82" height="28.14" transform="translate(-236.7 107.97) rotate(-35)"/><rect class="cls-4" x="11.52" y="350" width="83.82" height="28.14" transform="translate(-199.16 96.49) rotate(-35)"/><rect class="cls-4" x="11.52" y="286.13" width="83.82" height="28.14" transform="translate(-162.52 84.94) rotate(-35)"/></g><line class="cls-5" x1="44.1" y1="387.78" x2="73.65" y2="366.95"/><line class="cls-5" x1="56.06" y1="315.75" x2="73.21" y2="303.72"/><line class="cls-5" x1="37.87" y1="328.31" x2="48.27" y2="320.95"/><line class="cls-6" x1="37.87" y1="456.95" x2="56.06" y2="444.39"/></g><g class="cls-7"><path class="cls-8" d="M94.14,275.91H14.61s-1.27,39.95,12,69a9.46,9.46,0,0,0,8.6,5.53H71.13a9.46,9.46,0,0,0,8.29-4.91C94.14,318.82,94.14,275.91,94.14,275.91Z"/></g><g class="cls-9"><path class="cls-8" d="M14.51,275.91H94.05s1.26,39.95-12,69a9.46,9.46,0,0,1-8.6,5.53h-36a9.44,9.44,0,0,1-8.28-4.91C14.51,318.82,14.51,275.91,14.51,275.91Z"/></g><path class="cls-8" d="M9.72,213.11H65.59c2.86,0,5.2,2,5.2,4.35v54.09c0,2.4-2.34,4.36-5.2,4.36H14.92c-2.86,0-4.77-2.54-5.2-4.36a288.45,288.45,0,0,1-5.2-54.09C4.52,215.28,6.86,213.11,9.72,213.11Z"/><path class="cls-8" d="M98.51,213.11H42.63c-2.85,0-5.19,2-5.19,4.35v54.09c0,2.4,2.34,4.36,5.19,4.36H93.31c2.86,0,4.76-2.54,5.2-4.36a289,289,0,0,0,5.19-54.09C103.7,215.28,101.36,213.11,98.51,213.11Z"/><rect class="cls-8" x="283.73" y="19.84" width="101.78" height="162.1" rx="12" transform="translate(-14.83 94.93) rotate(-15.8)"/><path class="cls-10" d="M111.75,206.24s0,8.84-8.84,8.84H5.72s-5.52.2-5.52-7.49C-.06,192.87.09,42.77.09,42.77S-3.12.07,29.28.07H72.86s30.05-2.95,30.05,29.45S97,94.32,117.64,88.43s70.68-20.62,70.68-20.62l58.91-17.67,20.62-14.73L312,191.51s-29.46,0-35.35-14.72S262,126.72,241.34,129.66c-11.53,1.65-70.69,8.84-85.41,38.29-32.4-5.89-41.24-2.94-41.24,8.84C111.75,197.41,111.75,206.24,111.75,206.24Z"/></g></g></svg>