<svg xmlns="http://www.w3.org/2000/svg" viewBox="0 0 320 265.28"><defs><style>.cls-1{fill:#e6e8e6;}.cls-2{fill:none;stroke:#000;stroke-linecap:round;stroke-miterlimit:10;stroke-width:2px;}</style></defs><g id="Layer_2" data-name="Layer 2"><g id="deuvelpin"><path class="cls-1" d="M214.48,120.28a3,3,0,0,1-2.75-1.83L186.25,57.78,162.75,1.83a3,3,0,0,0-5.5,0l-23.5,56-25.48,60.67a3,3,0,0,1-2.75,1.83H3a3,3,0,0,0-3,3v19a3,3,0,0,0,3,3H7a3,3,0,0,1,3,3v114a3,3,0,0,0,3,3H307a3,3,0,0,0,3-3v-114a3,3,0,0,1,3-3h4a3,3,0,0,0,3-3v-19a3,3,0,0,0-3-3Z"/><line class="cls-2" x1="10" y1="145.28" x2="182.42" y2="145.28"/><line class="cls-2" x1="312.12" y1="145.28" x2="231.71" y2="145.28"/><line class="cls-2" x1="103.31" y1="120.28" x2="141.01" y2="120.28"/><line class="cls-2" x1="153.78" y1="120.28" x2="165.38" y2="120.28"/></g></g></svg>