<svg xmlns="http://www.w3.org/2000/svg" viewBox="0 0 159 434"><defs><style>.cls-1{fill:#fdca40;}.cls-2,.cls-3{fill:#ed1c24;}.cls-3{stroke:#000;stroke-linecap:round;stroke-miterlimit:10;stroke-width:2px;}</style></defs><g id="Layer_2" data-name="Layer 2"><g id="houtlijm"><rect class="cls-1" y="128" width="159" height="306" rx="30.08"/><path class="cls-2" d="M20.33,121.88,21.8,94.36a6.76,6.76,0,0,1,4.38-6A152.09,152.09,0,0,1,78,79a144.79,144.79,0,0,1,51,9.33,6.81,6.81,0,0,1,4.29,5.79l2.57,28.52a6.81,6.81,0,0,1-6.79,7.36s-21,3-52,3-49.94-4-49.94-4A6.81,6.81,0,0,1,20.33,121.88Z"/><polygon class="cls-2" points="79.5 83.73 98 46 124.48 46 124.48 93.16 79.5 83.73"/><path class="cls-2" d="M93.35,51h33.31A2.45,2.45,0,0,0,129,48.38l-1.8-46A2.42,2.42,0,0,0,124.86,0H111a2.34,2.34,0,0,0-2.17,1.56l-17.69,46A2.51,2.51,0,0,0,93.35,51Z"/><path class="cls-3" d="M80.16,79S108,80,126.4,87.34"/><line class="cls-3" x1="94.43" y1="51" x2="102.88" y2="51"/><line class="cls-3" x1="111.73" y1="51" x2="125.84" y2="51"/></g></g></svg>