<svg xmlns="http://www.w3.org/2000/svg" xmlns:xlink="http://www.w3.org/1999/xlink" viewBox="0 0 522 59.05"><defs><style>.cls-1,.cls-5{fill:none;}.cls-2{fill:#fdca40;}.cls-3{clip-path:url(#clip-path);}.cls-4{fill:#e6e8e6;}.cls-5{stroke:#080708;stroke-linecap:round;stroke-linejoin:round;stroke-width:2px;}</style><clipPath id="clip-path"><rect class="cls-1" x="1" y="0.02" width="520" height="58"/></clipPath></defs><g id="Layer_2" data-name="Layer 2"><g id="meter"><g id="yellow-white"><rect class="cls-2" x="1" y="0.02" width="520" height="58"/><g class="cls-3"><rect class="cls-4" x="261" y="0.01" width="260" height="58"/></g></g><line class="cls-5" x1="521" y1="58" x2="521" y2="35"/><line class="cls-5" x1="1" y1="58.05" x2="1" y2="35.05"/><line class="cls-5" x1="27.26" y1="58.04" x2="26.74" y2="48.05"/><line class="cls-5" x1="52.83" y1="58.04" x2="53.18" y2="48.05"/><line class="cls-5" x1="78.83" y1="58.04" x2="79.18" y2="48.04"/><line class="cls-5" x1="105.18" y1="58.03" x2="104.83" y2="48.04"/><line class="cls-5" x1="131" y1="58.04" x2="131" y2="43.04"/><line class="cls-5" x1="157.18" y1="58.03" x2="156.83" y2="48.04"/><line class="cls-5" x1="183" y1="58.03" x2="183" y2="48.03"/><line class="cls-5" x1="208.74" y1="58.02" x2="209.26" y2="48.04"/><line class="cls-5" x1="235.09" y1="58.03" x2="234.91" y2="48.03"/><line class="cls-5" x1="286.83" y1="58.02" x2="287.18" y2="48.02"/><line class="cls-5" x1="313.35" y1="58.01" x2="312.65" y2="48.03"/><line class="cls-5" x1="338.83" y1="58.01" x2="339.18" y2="48.02"/><line class="cls-5" x1="365" y1="58.01" x2="365" y2="48.01"/><line class="cls-5" x1="391" y1="58.01" x2="391" y2="43.01"/><line class="cls-5" x1="417.26" y1="58" x2="416.74" y2="48.02"/><line class="cls-5" x1="442.83" y1="58" x2="443.18" y2="48.01"/><line class="cls-5" x1="469" y1="58" x2="469" y2="48"/><line class="cls-5" x1="494.83" y1="58" x2="495.18" y2="48.01"/><line class="cls-5" x1="261" y1="58.02" x2="260.75" y2="38.08"/></g></g></svg>