<svg xmlns="http://www.w3.org/2000/svg" viewBox="0 0 210.08 419.49"><defs><style>.cls-1{fill:#e6e8e6;}.cls-2{fill:#080708;}.cls-3{fill:#fdca40;}</style></defs><g id="Layer_2" data-name="Layer 2"><g id="paint_brush" data-name="paint brush"><path class="cls-1" d="M12.34,195.68,9,262.73A5,5,0,0,0,14,268l187.69,2.29a5,5,0,0,0,5.09-5V195.93a5,5,0,0,0-5-5H17.36A5,5,0,0,0,12.34,195.68Z"/><path class="cls-2" d="M9.1,267.94.36,398.1S-4,411.38,17.83,411.38s159.82,7.31,166,8c12.21.65,26.21-.35,26.21-13.35,0-13.28-4.37-135.65-4.37-135.65Z"/><path class="cls-3" d="M204.16,193.91H15.08a2.59,2.59,0,0,1-2.59-2.59v-4.16a2.59,2.59,0,0,1,2-2.53c10.73-2.33,60.17-14.7,60.17-44.41,0-33.32-8.81-64.79-8.81-79.6S78.52.48,109.62,0s44.31,32.86,44.31,60.62-13.21,53.69-8.81,85.16c3.89,27.8,49,36.82,59.47,38.54a2.59,2.59,0,0,1,2.16,2.56v4.44A2.59,2.59,0,0,1,204.16,193.91Z"/></g></g></svg>