<svg xmlns="http://www.w3.org/2000/svg" viewBox="0 0 33.81 92.72"><defs><style>.cls-1{fill:#e6e8e6;}.cls-2{fill:none;stroke:#b2b2b2;stroke-linecap:round;stroke-miterlimit:10;stroke-width:2px;}</style></defs><g id="Layer_2" data-name="Layer 2"><g id="Layer_9" data-name="Layer 9"><path class="cls-1" d="M.16,3.44,6.75,21.58a2.58,2.58,0,0,1,.16.87V78.22a2.55,2.55,0,0,0,.38,1.35l7.45,12a2.56,2.56,0,0,0,4.34,0l7.44-11.9a2.56,2.56,0,0,0,.39-1.35V22.45a2.57,2.57,0,0,1,.15-.87l6.6-18.14A2.57,2.57,0,0,0,31.25,0H2.56A2.56,2.56,0,0,0,.16,3.44Z"/><line class="cls-2" x1="26.91" y1="22.16" x2="6.91" y2="34"/><line class="cls-2" x1="26.91" y1="37.16" x2="6.91" y2="49"/><line class="cls-2" x1="26.91" y1="52.16" x2="6.91" y2="64"/><line class="cls-2" x1="26.91" y1="67.16" x2="6.91" y2="79"/></g></g></svg>