<svg xmlns="http://www.w3.org/2000/svg" viewBox="0 0 626.01 445.23"><defs><style>.cls-1{fill:#e6e8e6;}.cls-2{fill:blue;}</style></defs><g id="Layer_2" data-name="Layer 2"><g id="paint"><rect class="cls-1" x="18.6" y="45.23" width="594" height="400" rx="25.49"/><path class="cls-2" d="M58.6,87.23c45-1,55,52,49.22,70.3s-14.43,36.53-13,55.68c1.43,19.7,15,38.4,33.73,44.56s41.58-1.61,51.53-18.68c11.07-19,5.36-42.75,1.67-64.41-2.38-14-7.72-30.52-4.17-42.24s7.56-20.71,25.56-27.71,35.68,2,54.32,11.75c9.14,4.76,16.5,12.27,24.6,18.63,17.47,13.73,41.13,22.41,62.05,14.93,11.9-4.26,21.44-13.14,31.95-20.16,20.66-13.8,54.41-17.54,70.74-18.85s89.34-.3,115.84,9.2,33.51,15.29,50.5,19.5c13,3,2-26,5-40s21-62-10-82-539-25-582-5-23.5,118.5-7.5,117.5S26.39,87.3,58.6,87.23Z"/></g></g></svg>