<svg xmlns="http://www.w3.org/2000/svg" viewBox="0 0 296.67 211"><defs><style>.cls-1{fill:#e6e8e6;}.cls-2{fill:#080708;}.cls-3{font-size:50px;font-family:Avenir-Black, Avenir;font-weight:800;}.cls-4{letter-spacing:-0.06em;}.cls-5{letter-spacing:0.02em;}</style></defs><g id="Layer_2" data-name="Layer 2"><g id="paint"><rect class="cls-1" x="7.59" y="21.44" width="281.5" height="189.56" rx="25.49"/><path class="cls-2" d="M27.77,41.34C49.1,40.87,53.81,66,51.1,74.66S44.26,92,44.92,101c.68,9.34,7.08,18.2,16,21.12s19.71-.76,24.42-8.85c5.25-9,2.54-20.26.79-30.53-1.12-6.61-3.66-14.46-2-20S87.72,53,96.25,49.63s16.91,1,25.75,5.57c4.33,2.26,7.81,5.81,11.65,8.83,8.28,6.51,19.5,10.62,29.41,7.07,5.64-2,10.16-6.22,15.14-9.55C188,55,204,53.24,211.73,52.62s42.33-.14,54.89,4.36,15.88,7.25,23.93,9.24c6.16,1.42.95-12.32,2.37-19s9.95-29.38-4.74-38.86S32.75-3.44,12.37,6,1.23,62.19,8.81,61.72,12.51,41.37,27.77,41.34Z"/><text class="cls-3" transform="translate(74.71 135.48)"><tspan class="cls-4">V</tspan><tspan x="32.45" y="0">e</tspan><tspan class="cls-5" x="61.15" y="0">r</tspan><tspan x="82.4" y="0">nis</tspan></text></g></g></svg>