<svg xmlns="http://www.w3.org/2000/svg" viewBox="0 0 361.46 353.12"><defs><style>.cls-1{fill:#e6e8e6;}.cls-2{fill:#ed1c24;}.cls-3{fill:none;stroke:#080708;stroke-linecap:round;stroke-linejoin:round;stroke-width:2px;}</style></defs><g id="Layer_2" data-name="Layer 2"><g id="zaag"><polygon class="cls-1" points="139.13 90.22 0 274.88 93.84 352.28 116.75 353.12 117.39 332.24 138.22 333 138.8 314.32 158.58 315.04 159.12 297.46 178.91 298.18 179.45 280.6 200.28 281.36 200.86 262.68 220.64 263.4 221.18 245.82 240.97 246.54 241.51 229.68 261.26 230.78 261.99 212.86 280.66 214.66 281.87 202.21 139.13 90.22"/><path class="cls-2" d="M353.42,117.06h0a21.67,21.67,0,0,0-30.37,3.3l-1.11,1.37-110-87.45A21.66,21.66,0,0,0,208,4.74h0A21.66,21.66,0,0,0,177.61,8L163.15,26a28.3,28.3,0,0,0-2.5,2.73l-35.75,45a27.63,27.63,0,0,0,4.43,38.72L264.11,219.58a27.64,27.64,0,0,0,38.72-4.43l35.75-45c.48-.6.92-1.21,1.33-1.84l16.81-20.89A21.68,21.68,0,0,0,353.42,117.06Zm-57.38,52h0a21.09,21.09,0,0,1-29.54,3.38l-87.71-69.71a21.09,21.09,0,0,1-3.38-29.54h0A21.09,21.09,0,0,1,205,69.84l87.71,69.71A21.08,21.08,0,0,1,296,169.09Z"/><path class="cls-3" d="M210.23,36.2s6.35-6.35,5.73-13.08"/><path class="cls-3" d="M320.12,124.77s3.53-8.26,10-10.18"/></g></g></svg>