<?xml version="1.0" standalone="no"?>
<!DOCTYPE svg PUBLIC "-//W3C//DTD SVG 20010904//EN"
 "http://www.w3.org/TR/2001/REC-SVG-20010904/DTD/svg10.dtd">
<svg version="1.0" xmlns="http://www.w3.org/2000/svg"
 width="960.000000pt" height="960.000000pt" viewBox="0 0 960.000000 960.000000"
 preserveAspectRatio="xMidYMid meet">
<metadata>
Created by potrace 1.11, written by Peter Selinger 2001-2013
</metadata>
<g transform="translate(0.000000,960.000000) scale(0.100000,-0.100000)"
fill="#000000" stroke="none">
<path d="M3960 7106 c-33 -22 -70 -24 -70 -5 0 5 -8 9 -17 9 -13 0 -14 -3 -6
-11 13 -13 6 -39 -9 -39 -6 0 -8 6 -5 14 9 22 -5 28 -24 10 -17 -15 -19 -15
-34 0 -22 21 -53 23 -35 1 10 -13 9 -15 -9 -15 -11 0 -21 5 -21 10 0 6 -7 10
-16 10 -13 0 -14 -3 -5 -13 6 -8 8 -17 4 -20 -13 -13 -23 -7 -24 16 -1 20 -2
20 -6 2 -3 -11 -10 -23 -17 -27 -8 -5 -8 -10 1 -19 9 -9 16 -9 28 1 10 8 15 9
15 1 0 -6 -3 -11 -8 -11 -4 0 -12 -10 -17 -22 -7 -15 -20 -24 -40 -26 -16 -2
-35 -8 -41 -13 -6 -5 -18 -7 -27 -3 -8 3 -18 1 -22 -5 -3 -6 -11 -11 -17 -11
-7 0 -6 5 1 14 7 8 11 20 10 28 -3 28 2 33 41 33 48 1 54 -12 8 -17 -18 -2
-31 -7 -28 -13 3 -5 14 -9 25 -7 11 2 32 3 48 3 17 0 27 5 27 14 0 8 -4 15
-10 15 -5 0 -10 9 -10 21 0 16 -4 19 -17 13 -10 -4 -31 -8 -48 -8 -16 -1 -40
-7 -53 -14 -20 -12 -23 -10 -31 10 l-9 23 -11 -27 c-11 -30 -31 -38 -31 -12 0
8 -4 12 -10 9 -5 -3 -10 -17 -10 -31 0 -21 4 -24 20 -19 11 4 20 2 20 -4 0 -6
-11 -13 -24 -17 -13 -3 -29 -16 -36 -29 -7 -14 -28 -29 -47 -36 -54 -18 -62
-3 -10 20 47 20 69 47 50 60 -5 3 -13 15 -17 26 -7 16 -9 17 -13 5 -3 -8 -12
-23 -21 -32 -14 -17 -13 -18 8 -18 19 0 20 -2 10 -15 -18 -21 -47 -19 -53 5
-7 26 -39 26 -55 -1 -12 -19 -11 -19 8 -9 19 10 21 9 19 -12 -6 -69 4 -79 53
-54 59 31 108 30 76 -2 -9 -9 -9 -12 3 -12 7 0 20 4 28 9 12 8 12 13 -3 36
-15 23 -16 29 -5 36 8 5 19 9 25 9 20 0 34 23 22 37 -15 18 -3 28 21 17 15 -7
17 -14 10 -32 -5 -13 -18 -26 -29 -29 -24 -6 -26 -21 -4 -30 10 -4 20 0 26 10
11 21 37 22 44 3 8 -21 31 -27 60 -16 20 8 25 7 22 -2 -3 -7 -17 -14 -31 -16
-15 -2 -25 -8 -22 -13 4 -5 25 -6 48 -3 38 5 40 4 24 -9 -9 -8 -28 -12 -41
-10 -15 3 -25 -1 -30 -12 -5 -15 -1 -16 34 -10 26 4 40 3 40 -4 0 -6 -9 -11
-19 -11 -11 0 -26 -6 -33 -13 -7 -8 -19 -12 -26 -9 -7 2 -22 -4 -32 -13 -11
-10 -26 -14 -38 -11 -11 4 -32 2 -48 -4 -23 -9 -31 -8 -40 4 -15 21 -38 20
-55 0 -12 -15 -11 -16 9 -10 16 6 27 3 35 -8 10 -13 18 -14 51 -5 31 8 41 8
47 -3 6 -8 12 -9 17 -3 16 22 54 37 65 26 17 -17 87 -14 87 4 0 9 9 15 24 15
28 0 43 15 24 24 -7 2 -2 4 11 3 13 -1 26 4 29 12 8 25 -69 2 -102 -30 -16
-16 -38 -29 -48 -29 -28 0 -21 16 12 30 40 16 53 35 52 71 0 19 4 29 11 26 7
-2 12 -12 12 -23 0 -10 7 -19 15 -19 10 0 14 8 12 23 -3 17 2 22 17 22 12 0
21 7 21 15 0 18 -5 19 -29 3 -15 -9 -26 -9 -44 -1 -18 9 -24 9 -23 0 0 -7 -3
-12 -9 -12 -5 0 -9 8 -8 18 2 11 -4 17 -18 17 -11 0 -17 5 -14 10 9 14 42 13
47 -2 6 -17 65 -18 79 -2 9 11 8 14 -6 14 -14 0 -15 3 -6 14 9 11 7 15 -10 19
-12 3 -18 10 -14 17 11 19 38 7 42 -19 2 -14 8 -30 14 -37 12 -15 39 -7 39 11
0 14 22 25 48 24 14 0 14 -2 2 -6 -20 -8 -70 -59 -70 -72 0 -6 -9 -15 -20 -21
-11 -6 -20 -15 -20 -20 0 -13 37 -13 45 0 4 6 11 7 17 4 7 -4 1 -14 -13 -25
-18 -13 -21 -21 -13 -29 8 -8 14 -9 18 -1 10 15 37 14 34 -1 -2 -7 7 -14 20
-16 14 -2 22 -9 19 -16 -3 -8 3 -27 13 -44 20 -32 14 -47 -14 -36 -17 6 -23
-11 -7 -20 5 -3 7 -15 4 -26 -3 -12 0 -20 7 -20 7 0 9 -8 5 -20 -4 -11 -2 -20
4 -20 6 0 11 -7 11 -15 0 -8 -4 -15 -10 -15 -5 0 -10 5 -10 10 0 6 -7 10 -16
10 -11 0 -14 5 -9 18 5 13 4 14 -6 5 -9 -9 -8 -18 5 -38 10 -15 15 -33 12 -41
-3 -8 -1 -14 4 -14 5 0 7 -7 3 -16 -3 -8 -11 -13 -18 -10 -8 3 -16 -2 -20 -11
-7 -19 10 -40 19 -24 4 6 12 11 18 11 6 0 5 -6 -3 -16 -11 -14 -10 -18 6 -30
16 -12 16 -14 3 -14 -9 0 -18 5 -20 11 -2 6 -15 9 -28 7 l-25 -5 25 -11 c14
-6 18 -11 10 -12 -27 -1 -61 -35 -54 -53 5 -15 8 -15 23 4 16 21 17 21 19 -5
1 -17 -3 -26 -13 -26 -8 0 -24 -9 -35 -20 -25 -25 -45 -18 -30 10 5 10 10 21
10 24 0 10 -38 -9 -64 -31 -21 -18 -26 -20 -36 -8 -9 11 -8 18 4 30 29 29 17
37 -23 15 -42 -24 -43 -24 -102 32 -17 16 -18 16 -24 -3 -4 -10 -11 -19 -16
-19 -5 0 -9 -6 -9 -14 0 -21 -21 -31 -31 -15 -13 21 -11 39 4 39 8 0 14 6 14
13 0 6 4 19 7 28 5 12 0 16 -23 16 -22 0 -28 -4 -21 -12 10 -12 4 -25 -11 -25
-14 0 -20 39 -10 59 18 33 -9 38 -35 7 l-23 -26 -17 24 c-8 14 -13 30 -9 36
15 25 -8 29 -30 5 -13 -14 -30 -25 -38 -25 -8 0 -17 -9 -20 -20 -3 -11 -13
-20 -22 -20 -10 0 -28 -11 -41 -25 -14 -15 -25 -21 -29 -14 -4 5 3 18 14 28
21 18 21 18 1 36 -21 19 -28 7 -8 -13 9 -9 8 -12 -4 -12 -9 0 -18 -6 -21 -12
-4 -10 -7 -10 -18 0 -12 11 -7 19 27 52 40 38 42 38 65 22 22 -15 23 -15 11 1
-12 14 -11 20 2 39 21 29 20 35 -3 41 -13 3 -17 0 -14 -12 3 -11 -6 -22 -23
-31 -15 -8 -38 -25 -50 -37 -13 -13 -30 -23 -38 -23 -8 0 -16 -6 -19 -12 -3
-10 -7 -10 -20 1 -20 16 -22 31 -4 31 6 0 27 17 46 37 32 34 32 37 15 50 -24
18 -39 17 -24 -2 10 -12 8 -17 -17 -27 -16 -7 -28 -19 -26 -26 3 -7 -1 -10
-11 -6 -9 3 -16 1 -16 -5 0 -17 -27 -13 -34 5 -8 22 -8 24 7 25 6 0 25 16 41
35 23 28 26 37 16 49 -7 8 -17 15 -22 15 -7 0 -6 -5 0 -13 9 -10 6 -18 -9 -30
-11 -10 -24 -15 -29 -12 -6 4 -10 3 -10 -2 0 -4 -7 -17 -15 -27 -14 -19 -16
-19 -34 -2 -19 17 -18 18 22 58 23 22 41 47 39 55 -2 10 2 13 15 9 13 -4 22 2
30 21 7 15 11 29 8 31 -3 3 -5 0 -5 -7 0 -7 -5 -9 -11 -6 -6 4 -17 -2 -25 -14
-8 -12 -22 -21 -30 -21 -12 0 -12 -4 -4 -20 11 -20 -3 -30 -15 -10 -10 15 -28
12 -22 -4 3 -8 -1 -17 -10 -20 -12 -5 -13 -9 -3 -21 11 -13 10 -14 -3 -9 -9 3
-23 17 -33 31 -15 24 -15 26 0 20 11 -4 16 -1 16 11 0 9 16 30 35 46 35 30 44
46 24 46 -5 0 -7 -4 -4 -10 8 -13 -1 -13 -25 0 -15 8 -18 7 -15 -2 2 -7 -2
-22 -10 -32 -12 -16 -17 -17 -30 -6 -8 7 -18 11 -20 8 -3 -3 1 -11 9 -18 22
-17 0 -37 -42 -37 -32 0 -39 11 -23 35 6 11 11 10 25 -3 9 -10 20 -14 24 -10
4 3 -1 11 -11 17 -18 9 -18 11 3 30 18 17 23 18 38 6 15 -11 16 -11 4 4 -7 9
-9 18 -4 20 18 6 23 45 7 52 -10 3 -14 2 -9 -5 7 -13 -35 -61 -47 -53 -5 3 -9
0 -9 -5 0 -13 -37 -51 -49 -51 -5 0 -11 -6 -14 -12 -4 -10 -7 -10 -18 -1 -10
11 -7 18 19 41 18 16 32 34 32 40 0 6 8 12 18 14 15 3 14 6 -5 16 -19 11 -23
10 -23 -3 0 -8 -4 -14 -8 -12 -5 1 -23 -13 -41 -32 -21 -23 -35 -31 -42 -24
-12 12 72 103 94 103 18 0 17 42 -2 48 -8 3 -11 0 -8 -6 9 -14 -20 -35 -39
-28 -12 4 -14 1 -9 -14 4 -11 2 -20 -4 -20 -6 0 -11 -7 -11 -16 0 -14 -3 -14
-15 -4 -20 17 -20 41 0 33 9 -3 15 -2 14 3 -5 31 2 46 21 41 11 -3 18 -1 15 4
-3 5 -1 17 4 28 9 16 8 18 -8 14 -13 -3 -21 1 -24 14 -2 10 -3 6 -1 -9 2 -15
-1 -30 -6 -33 -6 -3 -10 5 -10 18 0 24 -22 42 -47 38 -7 -1 -13 3 -13 9 0 7
-6 8 -19 0 -28 -15 -33 -13 -26 10 7 23 -2 25 -29 5 -10 -8 -15 -19 -11 -26 5
-7 3 -10 -6 -7 -8 3 -12 12 -10 19 13 48 13 59 -3 59 -9 0 -16 -6 -16 -12 -1
-7 -9 -3 -19 10 -24 27 -31 28 -31 2 0 -11 -4 -20 -10 -20 -5 0 -10 11 -10 25
0 30 -16 33 -25 6 -4 -12 -12 -18 -21 -14 -20 8 -164 -104 -164 -127 0 -11 -4
-22 -10 -25 -16 -10 -46 -87 -59 -155 -16 -78 -7 -249 15 -300 11 -24 38 -51
92 -88 127 -86 226 -167 239 -192 10 -21 9 -28 -10 -49 l-22 -23 24 7 c39 12
152 69 205 103 28 18 57 32 65 32 8 0 23 7 33 16 19 18 38 17 306 -21 173 -24
372 -85 372 -114 0 -6 7 -11 16 -11 11 0 15 -6 11 -20 -3 -11 -1 -20 4 -20 5
0 9 6 9 13 1 7 6 5 14 -5 7 -10 18 -18 24 -18 6 0 16 -9 22 -20 10 -19 40 -28
40 -12 0 16 97 32 190 32 83 -1 101 2 144 25 27 14 60 25 73 25 13 0 35 7 49
16 36 24 242 15 280 -12 14 -11 43 -28 65 -40 38 -19 43 -20 134 -5 90 14 101
14 232 -8 300 -49 620 -149 1078 -338 87 -35 99 -47 99 -91 -1 -63 -22 -240
-30 -254 -4 -7 -24 -33 -44 -58 -67 -81 -78 -115 -110 -341 -29 -199 -29 -201
-73 -222 -23 -12 -37 -26 -37 -38 0 -10 4 -19 9 -19 5 0 16 -12 26 -26 14 -22
15 -28 4 -35 -11 -7 -11 -9 2 -9 12 0 15 -8 13 -27 -7 -64 -7 -130 0 -141 4
-6 -1 -23 -10 -37 -15 -23 -15 -25 1 -25 10 0 24 -8 31 -17 11 -15 15 -16 23
-4 7 11 18 5 52 -28 40 -38 69 -55 54 -31 -3 6 -1 10 5 10 15 0 30 -43 23 -68
-2 -11 3 -34 12 -52 13 -25 19 -29 30 -20 9 7 15 8 20 0 3 -5 1 -10 -4 -10 -6
0 -11 -7 -11 -15 0 -18 -12 -19 -28 -3 -12 12 -11 -14 4 -108 l6 -41 -48 -8
c-27 -4 -51 -10 -54 -14 -3 -3 -18 -15 -34 -25 -23 -15 -30 -16 -37 -5 -12 19
-11 29 1 29 6 0 10 7 10 15 0 19 -1 19 -76 -11 -35 -14 -68 -23 -73 -19 -5 3
-12 1 -16 -5 -7 -11 39 -25 54 -15 6 3 11 2 11 -4 0 -6 7 -7 17 -4 11 4 14 3
9 -5 -4 -7 -18 -12 -31 -12 -13 0 -27 -4 -30 -10 -8 -12 -42 -13 -49 -1 -3 4
6 6 21 3 33 -6 23 12 -18 33 -31 17 -41 39 -11 28 15 -6 16 -5 2 13 -8 10 -19
22 -23 25 -5 3 -6 48 -3 100 3 52 7 117 8 144 1 30 9 55 18 62 13 11 12 13 -7
19 -23 6 -32 24 -13 24 6 0 10 6 10 14 0 8 8 17 17 20 15 6 13 10 -12 31 -26
22 -39 25 -100 23 -63 -1 -70 1 -68 18 4 39 64 413 98 614 24 138 35 226 35
269 0 39 -2 41 -29 41 -17 0 -42 -10 -56 -23 -30 -25 -34 -42 -66 -257 -17
-115 -36 -237 -89 -562 -5 -31 -18 -74 -29 -97 -12 -22 -21 -46 -21 -54 0 -20
30 -44 65 -51 17 -4 43 -18 58 -31 39 -37 50 -92 42 -217 -9 -140 10 -227 66
-297 51 -65 85 -88 162 -108 91 -24 185 -9 348 54 100 39 135 48 184 47 104
-1 299 -21 326 -34 30 -14 92 -91 109 -134 27 -73 -96 -213 -373 -424 -38 -29
-66 -52 -63 -52 3 0 -2 -8 -11 -18 -10 -10 -24 -17 -31 -14 -7 2 -19 -1 -26
-7 -10 -9 -16 -9 -21 -1 -4 6 -15 8 -25 5 -12 -4 -22 1 -29 12 -9 16 -13 15
-44 -15 -24 -23 -39 -31 -52 -26 -15 6 -17 4 -13 -14 4 -12 2 -20 -3 -16 -5 3
-8 -8 -7 -25 2 -29 5 -31 39 -31 47 0 100 23 117 49 8 15 23 21 45 21 34 0 77
30 77 54 0 19 96 76 128 76 31 0 292 -86 306 -100 16 -16 90 -11 161 11 181
56 401 182 490 281 47 53 95 139 95 173 0 18 5 21 30 17 17 -2 30 -8 30 -13 0
-5 8 -9 17 -9 15 0 14 2 -3 19 -10 10 -21 17 -24 15 -4 -1 -11 6 -18 17 -11
17 -9 19 13 19 14 0 25 4 25 9 0 5 -7 8 -16 7 -9 0 -19 5 -21 12 -4 9 3 11 21
8 14 -3 26 0 26 5 0 5 -3 9 -7 9 -26 1 -33 17 -19 45 16 30 13 45 -7 45 -7 0
-13 11 -13 25 -2 26 20 35 29 13 3 -7 6 -8 6 -2 1 12 -51 67 -91 95 -16 12
-28 16 -28 9 0 -6 -6 -10 -12 -7 -7 2 -13 9 -13 15 0 5 -3 14 -8 18 -4 4 -7 1
-7 -6 0 -10 -5 -9 -18 3 -21 19 -42 23 -24 5 17 -17 15 -38 -3 -38 -8 0 -15 5
-15 10 0 6 -7 10 -15 10 -8 0 -15 5 -15 10 0 6 -4 10 -10 10 -5 0 -10 -6 -10
-14 0 -17 -27 -29 -35 -16 -4 6 -3 15 0 20 12 20 -13 9 -39 -16 -14 -15 -26
-22 -26 -15 0 13 -27 15 -32 1 -1 -5 -14 -11 -28 -12 -14 -2 -28 -7 -32 -12
-4 -6 -12 -5 -21 2 -7 7 -17 9 -20 5 -4 -3 -15 1 -26 11 -17 16 -19 16 -25 -6
l-6 -23 -20 25 c-13 17 -20 20 -20 10 0 -8 -5 -22 -10 -30 -9 -13 -13 -11 -30
10 -20 24 -21 24 -35 6 -10 -13 -21 -17 -39 -12 -14 3 -28 1 -32 -5 -5 -8 -11
-6 -21 7 -13 18 -15 18 -27 2 -9 -12 -16 -14 -30 -6 -9 5 -24 7 -31 4 -8 -3
-17 0 -21 6 -4 7 -10 5 -16 -6 -12 -22 -25 -20 -31 5 -5 19 -7 20 -30 4 -18
-11 -26 -13 -29 -4 -3 9 -9 9 -25 0 -32 -16 -43 -14 -43 11 0 20 -1 20 -18 5
-30 -27 -45 -21 -37 13 8 37 1 38 -29 3 l-23 -27 -12 22 c-7 14 -21 22 -37 22
-22 0 -24 3 -19 23 6 18 5 20 -6 10 -17 -17 -39 -16 -39 1 0 8 -11 17 -25 20
-14 4 -25 10 -25 15 0 5 -15 26 -34 46 -26 27 -31 38 -20 42 24 9 15 23 -15
23 -26 0 -29 3 -35 46 -9 69 -8 74 19 84 31 12 32 26 3 33 l-23 6 25 23 c13
13 29 23 35 23 17 0 33 -41 28 -71 -4 -20 -2 -26 5 -19 6 6 12 30 13 55 4 70
15 85 74 104 33 10 59 26 69 41 9 14 22 25 30 25 12 0 116 102 116 114 0 3
-20 -15 -45 -40 -73 -73 -107 -84 -266 -84 -125 0 -139 2 -170 23 -18 12 -44
38 -56 56 -30 44 -30 122 -3 263 12 57 27 146 35 198 29 195 36 236 46 272 13
49 64 115 118 153 42 29 46 30 179 33 162 4 199 -4 241 -56 17 -20 31 -40 31
-45 0 -4 9 -27 19 -50 18 -39 18 -49 6 -147 -31 -236 -36 -265 -55 -298 -11
-19 -18 -42 -15 -52 8 -24 -22 -196 -40 -230 -8 -15 -41 -49 -74 -76 l-60 -48
27 -17 c15 -9 39 -30 54 -47 35 -38 58 -42 260 -42 154 0 174 -2 207 -21 58
-33 74 -62 73 -133 -1 -116 22 -150 111 -164 46 -7 61 -6 79 7 13 9 47 25 77
36 52 19 56 23 77 78 13 33 26 79 30 103 3 24 14 54 23 67 17 22 33 66 71 195
12 39 25 72 30 72 4 0 15 -12 25 -26 9 -14 48 -59 87 -100 83 -87 109 -94 160
-44 28 28 32 30 48 15 24 -22 40 -19 40 8 0 15 -71 108 -211 278 -256 308
-237 288 -249 269 -5 -8 -10 -44 -10 -80 0 -64 -21 -257 -44 -394 -13 -79 -32
-101 -64 -73 -10 10 -26 15 -35 12 -8 -4 -18 -2 -21 3 -5 8 91 653 139 940 5
26 3 32 -12 32 -17 0 -103 73 -103 88 0 4 33 20 73 36 39 16 97 44 128 63 55
32 229 200 286 275 78 104 83 112 74 121 -13 13 -42 -10 -39 -31 2 -10 -9 -19
-32 -25 -24 -7 -30 -12 -17 -14 29 -7 13 -28 -21 -28 -18 -1 -37 -6 -44 -14
-11 -10 -8 -12 12 -9 14 2 26 -1 27 -7 1 -5 -14 -10 -35 -10 -26 0 -38 -5 -40
-17 -2 -13 2 -15 20 -11 18 4 20 3 8 -6 -12 -8 -56 -6 -68 4 -7 6 24 45 35 45
25 0 13 16 -19 25 -28 9 -36 7 -55 -13 -13 -13 -23 -28 -23 -34 0 -6 -13 -8
-37 -3 -53 10 -56 14 -31 36 20 16 21 20 8 29 -8 5 -19 10 -25 10 -5 0 -3 -5
5 -10 13 -9 12 -13 -7 -29 -13 -11 -23 -24 -23 -29 0 -6 -9 -14 -20 -17 -11
-3 -20 -11 -20 -16 0 -5 -7 -9 -15 -9 -8 0 -15 5 -15 10 0 6 7 10 15 10 8 0
15 7 15 15 0 8 -9 15 -20 15 -11 0 -20 -6 -20 -13 0 -13 -39 -42 -46 -34 -3 2
7 15 21 28 13 13 25 27 25 31 0 16 58 69 64 59 9 -13 26 -15 26 -2 0 5 -9 11
-21 14 -16 4 -35 -9 -80 -55 -32 -33 -57 -64 -53 -69 3 -5 -4 -9 -15 -9 -12 0
-21 -7 -21 -15 0 -8 -6 -15 -13 -15 -7 0 -25 -14 -40 -31 -15 -18 -30 -29 -33
-27 -2 3 17 28 43 57 26 28 62 67 78 87 17 20 37 44 46 53 33 33 51 69 37 73
-16 6 -1 38 43 89 16 19 29 37 29 42 0 16 -20 6 -37 -19 -15 -23 -21 -25 -55
-20 -40 7 -56 -11 -18 -21 23 -6 26 -18 8 -29 -6 -4 -14 -2 -16 4 -4 14 -41
16 -61 3 -11 -7 -10 -10 4 -18 13 -8 14 -12 5 -18 -17 -10 -42 18 -34 38 3 9
14 17 24 17 17 0 37 17 29 24 -2 2 -23 6 -46 10 -35 5 -43 3 -43 -9 0 -8 7
-15 15 -15 22 0 -36 -94 -61 -97 -14 -2 -13 0 5 7 19 8 21 13 12 24 -10 11 -8
16 8 21 27 8 38 39 11 32 -11 -3 -22 -1 -25 3 -6 10 41 82 61 93 19 11 18 27
-1 27 -9 0 -30 7 -46 16 -30 15 -30 16 -13 35 23 25 10 25 -16 -1 -23 -23 -26
-42 -6 -34 27 11 25 -15 -4 -46 -19 -20 -34 -29 -42 -24 -19 12 -49 12 -45 0
2 -6 14 -13 27 -16 20 -5 21 -7 7 -18 -11 -9 -17 -10 -22 -2 -4 6 -15 8 -26 5
-13 -5 -19 -2 -19 10 0 9 -5 15 -12 13 -18 -6 -21 -28 -4 -28 9 0 16 -7 16
-15 0 -18 12 -19 28 -3 6 6 15 8 19 5 4 -4 -1 -15 -10 -24 -13 -13 -19 -15
-29 -5 -14 14 -88 16 -88 3 0 -5 9 -11 21 -14 12 -3 18 -10 14 -17 -4 -6 -15
-8 -24 -5 -21 6 -51 -3 -51 -16 0 -5 10 -9 23 -9 16 0 18 -3 8 -9 -7 -5 -22
-6 -32 -4 -21 6 -27 -22 -6 -30 9 -3 9 -7 0 -17 -18 -19 -45 12 -39 45 3 15 0
35 -7 46 -13 20 -42 25 -52 9 -3 -5 -2 -10 3 -10 5 0 13 -10 19 -22 7 -17 4
-27 -19 -51 -25 -28 -29 -29 -45 -15 -24 21 -63 32 -63 18 0 -6 8 -14 18 -17
34 -13 50 -63 20 -63 -6 0 -8 7 -4 15 10 27 -17 16 -44 -19 -14 -18 -13 -19 7
-14 13 4 25 2 28 -2 3 -5 -8 -11 -24 -15 -17 -3 -33 -15 -36 -25 -7 -23 -35
-35 -35 -14 0 8 7 17 15 20 8 4 15 17 15 31 0 14 10 33 23 43 12 10 19 21 16
24 -9 10 -39 -5 -39 -19 0 -7 -9 -24 -20 -37 -10 -14 -16 -28 -13 -32 4 -4 -6
-18 -22 -31 l-30 -24 28 -1 c42 0 28 -22 -17 -26 l-37 -3 20 35 c12 19 21 37
21 38 0 6 -54 19 -69 17 -9 -2 -12 4 -8 18 7 28 -4 26 -32 -3 -30 -32 -63 -39
-96 -22 -27 14 -55 12 -55 -4 0 -4 16 -11 36 -15 29 -5 35 -10 31 -26 -7 -26
5 -24 34 7 34 37 70 50 82 29 5 -10 15 -14 29 -9 16 5 19 2 16 -13 -4 -19 -26
-21 -80 -8 -22 6 -28 4 -28 -8 0 -19 -36 -41 -55 -33 -7 2 -21 -1 -30 -8 -26
-19 4 -40 39 -26 20 7 26 6 26 -4 0 -13 -26 -26 -77 -41 -25 -7 -30 4 -11 23
6 6 9 15 5 19 -4 4 -13 1 -19 -5 -7 -7 -25 -12 -40 -12 -21 0 -28 -5 -28 -20
0 -17 3 -19 18 -11 14 7 27 5 50 -9 31 -19 31 -19 76 6 28 15 57 24 75 22 28
-3 29 -4 15 -23 -10 -13 -17 -16 -22 -9 -4 6 -21 9 -37 7 -22 -3 -35 -13 -44
-35 -10 -22 -19 -28 -32 -25 -11 3 -19 0 -19 -5 0 -7 -5 -7 -13 1 -10 8 -17 7
-25 -1 -9 -9 -12 -9 -12 0 0 7 -9 12 -20 12 -14 0 -20 -7 -20 -21 0 -18 2 -19
15 -9 24 20 38 -1 19 -28 -8 -12 -19 -20 -24 -17 -5 3 -12 0 -15 -6 -4 -5 -13
-8 -21 -5 -8 3 -14 0 -14 -7 0 -7 13 -14 29 -15 22 -2 33 5 52 33 13 19 30 35
37 35 19 0 14 -19 -13 -44 -14 -13 -25 -28 -25 -33 0 -9 -71 -33 -94 -33 -7 0
-6 35 1 102 3 32 10 48 21 51 14 4 14 5 -2 6 -13 1 -16 6 -11 19 4 9 11 46 16
81 5 36 13 69 18 75 5 6 14 29 21 51 13 39 35 84 100 198 44 78 154 224 291
386 115 135 209 263 210 284 4 72 -19 131 -86 216 -118 154 -195 168 -256 47
-28 -56 -30 -55 -13 7 4 12 16 35 26 50 11 16 18 30 16 32 -2 3 -21 0 -42 -6
-62 -17 -144 -118 -131 -159 8 -24 -1 -26 -22 -4 -9 8 -22 13 -29 10 -8 -3
-14 -2 -14 3 0 8 -42 21 -89 27 -13 2 -27 7 -30 12 -3 5 -14 11 -24 15 -13 5
-17 2 -15 -10 2 -9 -2 -18 -9 -20 -6 -2 -13 6 -15 19 -3 26 -38 39 -38 14 0
-25 -17 -19 -24 9 -8 30 -32 33 -41 6 -3 -11 -12 -22 -21 -25 -11 -4 -13 0 -8
19 4 14 1 32 -6 40 -14 17 -32 11 -24 -9 6 -15 -11 -31 -46 -41 l-25 -8 24 20
c20 17 22 22 12 41 -16 29 -31 28 -31 -3 0 -14 -6 -25 -12 -25 -7 0 -25 -7
-40 -14 -30 -16 -38 -7 -13 14 8 6 19 9 25 5 5 -3 13 1 16 10 8 20 -10 42 -20
26 -4 -6 -16 -11 -28 -11 -11 0 -33 -9 -49 -21 -16 -11 -35 -18 -42 -16 -7 3
-5 6 6 6 9 1 17 6 17 12 0 17 42 50 57 45 7 -3 15 -1 18 4 3 5 -5 12 -17 16
-13 4 -24 2 -26 -5 -2 -6 -12 -11 -23 -11 -32 0 -63 -41 -69 -90 -5 -42 -7
-45 -35 -45 -17 0 -29 5 -28 12 2 7 -8 10 -26 7 -26 -4 -29 -2 -35 34 -9 60
-33 75 -118 75 -107 -1 -115 -2 -129 -21 -11 -14 -11 -15 1 -4 27 24 32 12 7
-18 -30 -35 -33 -44 -46 -129 -10 -64 -8 -86 9 -76 5 3 12 -1 17 -8 8 -15 41
-25 106 -34 21 -3 41 -12 44 -20 6 -16 -15 -64 -34 -76 -7 -4 -10 -14 -6 -23
4 -11 9 -12 19 -3 8 6 14 16 14 22 0 5 10 19 23 31 12 11 22 28 22 36 0 8 8
16 19 18 16 3 18 0 12 -24 -4 -15 -16 -40 -27 -56 -27 -38 -19 -61 9 -28 62
74 68 78 107 83 22 3 34 3 28 0 -16 -6 -17 -30 -1 -35 6 -2 8 -10 4 -16 -9
-14 -56 -16 -56 -2 0 6 5 10 10 10 6 0 10 4 10 9 0 5 -9 7 -20 4 -11 -3 -20
-9 -20 -13 0 -15 -52 -70 -66 -70 -22 0 -57 -41 -60 -69 -2 -14 -8 -27 -14
-29 -5 -2 -10 -10 -10 -18 0 -8 -7 -17 -15 -20 -18 -7 -20 -24 -2 -24 16 0 63
69 59 89 -4 26 124 116 155 108 14 -3 13 -6 -9 -15 -31 -13 -37 -32 -10 -32
12 0 4 -12 -27 -40 -25 -22 -53 -40 -63 -40 -10 0 -18 -4 -18 -9 0 -5 -7 -17
-16 -26 -26 -25 -8 -30 23 -6 15 12 57 43 92 69 44 32 65 55 68 72 2 14 15 35
29 46 19 16 22 23 13 26 -8 3 -12 8 -9 11 3 3 13 -1 24 -8 18 -13 17 -15 -13
-40 -18 -16 -31 -36 -31 -50 0 -24 -45 -69 -90 -89 -13 -6 -32 -18 -41 -26 -9
-8 -28 -24 -42 -34 -24 -17 -25 -20 -11 -31 15 -11 15 -12 -1 -19 -10 -3 -23
-2 -29 2 -25 20 -58 21 -79 1 -22 -20 -47 -25 -47 -9 0 5 8 15 19 21 11 7 16
19 13 31 -5 21 -22 24 -22 4 0 -8 -7 -16 -14 -19 -8 -3 -18 -21 -21 -40 -6
-28 -11 -34 -26 -30 -23 6 -25 19 -2 27 12 5 13 10 5 18 -8 8 -19 3 -41 -20
-20 -22 -24 -32 -14 -32 12 0 13 -3 3 -14 -6 -8 -17 -13 -25 -10 -24 10 -24
-12 1 -39 23 -25 31 -27 104 -27 98 0 122 11 152 66 22 42 25 44 68 44 69 0
76 -9 55 -65 -27 -70 -71 -124 -118 -146 -52 -23 -83 -24 -41 -1 46 26 78 54
99 87 15 24 12 23 -14 -8 -18 -21 -55 -49 -82 -62 -44 -23 -60 -25 -171 -25
-151 0 -186 9 -231 59 -55 61 -56 86 -2 432 52 337 72 401 140 453 65 50 95
57 243 55 75 -1 149 -5 164 -10 15 -4 28 -4 28 1 0 15 -29 19 -190 26 -130 5
-161 4 -193 -9 -21 -9 -45 -14 -55 -11 -12 4 -14 3 -4 -4 10 -7 8 -12 -10 -24
-13 -8 -35 -18 -50 -22 -24 -5 -28 -3 -28 14 0 26 -7 25 -60 -10 -25 -16 -53
-30 -62 -30 -10 0 -18 -4 -18 -9 0 -5 -15 -12 -32 -16 l-33 -8 39 -6 c35 -5
37 -7 23 -20 -10 -7 -17 -20 -17 -27 0 -9 -11 -14 -30 -14 -33 0 -40 14 -13
24 13 5 14 9 4 19 -10 9 -16 7 -28 -10 -9 -13 -21 -23 -28 -23 -7 0 -15 -7
-19 -15 -3 -8 -12 -15 -21 -15 -8 0 -15 -4 -15 -10 0 -16 27 -12 45 6 13 13
28 15 67 11 28 -4 53 -9 56 -12 3 -3 -5 -14 -18 -25 -24 -21 -60 -27 -60 -10
0 6 9 10 20 10 11 0 20 5 20 10 0 6 -11 10 -24 10 -17 0 -31 -10 -43 -30 -9
-16 -23 -30 -31 -30 -7 0 -11 -4 -7 -9 3 -5 20 -7 39 -4 20 3 36 1 40 -6 4 -6
18 -8 30 -5 20 5 23 2 21 -20 -3 -23 1 -26 28 -27 l32 -1 -35 -10 c-19 -5 -44
-14 -55 -19 -16 -8 -15 -8 8 -4 15 3 27 1 27 -4 0 -6 -12 -17 -27 -25 l-28
-15 28 -1 c15 0 27 -4 27 -10 0 -5 -6 -10 -14 -10 -7 0 -16 -9 -19 -19 -4 -17
-2 -18 19 -11 30 12 40 -4 11 -17 -19 -9 -24 -20 -26 -59 -1 -28 -8 -52 -17
-59 -18 -13 -8 -49 12 -41 8 3 11 0 7 -10 -3 -8 -17 -17 -32 -20 -14 -3 -31
-7 -37 -9 -6 -2 -17 2 -23 8 -6 6 -13 8 -16 5 -3 -3 11 -13 32 -23 35 -17 36
-18 15 -26 -12 -5 -22 -13 -22 -19 0 -6 -30 -10 -72 -10 l-73 -1 -28 -40 c-15
-22 -30 -54 -34 -70 -5 -28 -7 -29 -67 -30 -33 -1 -50 -4 -36 -6 50 -9 38 -18
-28 -21 -37 -1 -89 -4 -117 -6 -60 -3 -75 1 -75 23 -1 9 -7 -1 -15 -22 -7 -21
-15 -40 -17 -41 -31 -23 -86 -36 -147 -35 -67 1 -71 3 -71 24 0 12 16 123 35
246 20 123 51 325 70 449 20 124 38 237 41 253 l6 27 253 0 c266 0 278 -2 271
-46 -2 -10 -1 -13 1 -6 4 11 7 11 20 0 15 -12 15 -11 3 9 -12 18 -12 24 1 39
13 16 12 17 -13 10 -21 -5 -28 -3 -28 9 0 12 -19 15 -112 16 -62 0 -185 1
-274 2 -158 2 -160 2 -156 -19 2 -13 -2 -24 -12 -27 -9 -4 -16 -2 -16 3 0 6 5
10 10 10 6 0 10 5 10 10 0 16 -42 12 -62 -7 -17 -15 -18 -15 -18 0 0 10 6 17
14 17 7 0 19 7 26 15 19 23 -8 18 -50 -9z m-56 -65 c-22 -21 -27 -21 -18 3 3
9 13 16 22 16 13 0 12 -3 -4 -19z m-129 -1 c-3 -5 -13 -10 -21 -10 -8 0 -12 5
-9 10 3 6 13 10 21 10 8 0 12 -4 9 -10z m60 0 c3 -5 2 -10 -4 -10 -5 0 -13 5
-16 10 -3 6 -2 10 4 10 5 0 13 -4 16 -10z m125 -9 c0 -5 -9 -11 -20 -14 -22
-6 -28 8 -7 16 19 8 27 8 27 -2z m-156 -44 c-10 -27 -21 -20 -22 15 -1 27 1
29 14 16 8 -8 12 -22 8 -31z m46 23 c0 -5 -5 -10 -11 -10 -5 0 -7 5 -4 10 3 6
8 10 11 10 2 0 4 -4 4 -10z m1090 -20 c-19 -16 -46 -29 -59 -30 -31 0 -24 7
36 35 63 30 63 30 23 -5z m-1025 0 c-3 -5 -12 -10 -18 -10 -7 0 -6 4 3 10 19
12 23 12 15 0z m-201 -36 c9 -24 7 -28 -9 -14 -17 14 -20 30 -6 30 5 0 12 -7
15 -16z m147 -23 c-23 -18 -23 -19 -5 -29 18 -11 18 -11 -1 -10 -11 0 -29 -3
-40 -7 -18 -7 -17 -5 5 21 34 40 52 55 59 48 3 -3 -5 -13 -18 -23z m-253 -3
c-6 -18 -28 -21 -28 -4 0 9 7 16 16 16 9 0 14 -5 12 -12z m1289 6 c-3 -3 -12
-4 -19 -1 -8 3 -5 6 6 6 11 1 17 -2 13 -5z m-997 -18 c0 -3 -4 -8 -10 -11 -5
-3 -10 -1 -10 4 0 6 5 11 10 11 6 0 10 -2 10 -4z m-1383 -63 c-3 -10 -5 -4 -5
12 0 17 2 24 5 18 2 -7 2 -21 0 -30z m65 17 c-12 -12 -22 -25 -22 -30 0 -6 -4
-10 -10 -10 -13 0 0 32 19 47 26 20 36 14 13 -7z m48 6 c0 -3 -4 -8 -10 -11
-5 -3 -10 -1 -10 4 0 6 5 11 10 11 6 0 10 -2 10 -4z m60 -26 c0 -5 -5 -10 -11
-10 -5 0 -7 5 -4 10 3 6 8 10 11 10 2 0 4 -4 4 -10z m1205 -30 c-3 -5 -11 -10
-16 -10 -6 0 -7 5 -4 10 3 6 11 10 16 10 6 0 7 -4 4 -10z m-1241 -15 c-4 -8
-10 -15 -15 -15 -4 0 -6 7 -3 15 4 8 10 15 15 15 4 0 6 -7 3 -15z m3682 -22
c-4 -4 -11 -1 -16 7 -16 25 -11 35 7 17 9 -9 13 -20 9 -24z m-2412 -7 c-3 -9
-10 -16 -15 -16 -14 0 -11 28 4 33 16 6 19 3 11 -17z m2458 4 c-6 -27 -21
-160 -27 -245 -4 -49 -9 -92 -12 -95 -5 -5 3 146 14 260 3 30 5 65 5 78 0 13
5 21 12 19 6 -3 10 -10 8 -17z m-3742 -10 c0 -5 -2 -10 -4 -10 -3 0 -8 5 -11
10 -3 6 -1 10 4 10 6 0 11 -4 11 -10z m40 -11 c0 -11 -24 -39 -34 -39 -10 0
-6 20 7 35 15 17 27 19 27 4z m2197 -85 c-3 -3 -12 -4 -19 -1 -8 3 -5 6 6 6
11 1 17 -2 13 -5z m863 -9 c-7 -8 -18 -15 -24 -15 -6 0 -2 7 8 15 25 19 32 19
16 0z m-3009 -35 l24 -21 -32 16 c-32 15 -42 25 -24 25 5 0 19 -9 32 -20z
m2146 4 c-3 -3 -12 -4 -19 -1 -8 3 -5 6 6 6 11 1 17 -2 13 -5z m-2003 -40 c23
-23 20 -37 -4 -17 -11 10 -20 21 -20 25 0 12 7 10 24 -8z m-74 -4 c0 -5 -4
-10 -9 -10 -6 0 -13 5 -16 10 -3 6 1 10 9 10 9 0 16 -4 16 -10z m2880 -20
c-14 -11 -32 -20 -40 -20 -10 0 -7 7 10 20 14 11 32 20 40 20 10 0 7 -7 -10
-20z m-2842 -2 c16 -16 15 -29 -2 -22 -16 6 -30 34 -18 34 5 0 13 -5 20 -12z
m2907 6 c13 -5 10 -10 -15 -25 -40 -25 -45 -24 -23 6 21 29 17 27 38 19z
m-115 -44 c0 -5 -5 -10 -11 -10 -5 0 -7 5 -4 10 3 6 8 10 11 10 2 0 4 -4 4
-10z m-2716 -27 c4 -9 4 -18 2 -21 -7 -6 -36 24 -36 37 0 15 27 2 34 -16z
m2936 11 c0 -15 -37 -53 -52 -54 -18 0 -6 18 18 29 17 7 24 17 20 26 -3 8 -1
15 4 15 6 0 10 -7 10 -16z m-153 -24 c-20 -28 -65 -62 -78 -58 -6 2 7 17 30
32 23 16 41 33 41 37 0 5 5 9 11 9 6 0 5 -8 -4 -20z m-67 5 c0 -12 -45 -55
-58 -55 -9 0 -7 9 10 29 20 26 48 41 48 26z m140 -5 c0 -5 -10 -10 -22 -9 -22
0 -22 1 -3 9 11 5 21 9 23 9 1 1 2 -3 2 -9z m110 -20 c-14 -11 -29 -20 -35
-20 -5 0 1 9 15 20 14 11 30 20 35 20 6 0 -1 -9 -15 -20z m-150 -20 c0 -5 -4
-10 -10 -10 -5 0 -10 5 -10 10 0 6 5 10 10 10 6 0 10 -4 10 -10z m270 0 c0 -5
-5 -10 -11 -10 -5 0 -7 5 -4 10 3 6 8 10 11 10 2 0 4 -4 4 -10z m-3410 -16 c0
-2 -7 -4 -15 -4 -8 0 -15 4 -15 10 0 5 7 7 15 4 8 -4 15 -8 15 -10z m741 -1
c11 -13 11 -17 2 -20 -7 -3 -13 -11 -13 -19 0 -8 -7 -14 -15 -14 -8 0 -20 -9
-27 -20 -7 -11 -18 -20 -25 -20 -6 0 -13 -6 -16 -12 -7 -22 -36 10 -30 32 6
23 14 25 31 8 9 -9 12 -7 12 10 0 13 6 22 15 22 8 0 14 3 13 8 -3 8 23 41 33
42 4 0 13 -7 20 -17z m2209 1 c0 -11 -45 -43 -60 -44 -9 0 -4 9 14 25 28 24
46 32 46 19z m60 -12 c0 -11 -41 -34 -48 -27 -4 4 2 13 12 21 22 15 36 18 36
6z m35 -27 c-16 -13 -26 -27 -22 -31 10 -10 -33 -54 -52 -54 -12 1 -11 5 6 19
12 10 25 30 28 44 4 13 16 29 28 35 38 18 43 12 12 -13z m85 17 c0 -7 -17 -22
-49 -42 -12 -7 -12 -11 -2 -24 11 -14 11 -16 -6 -16 -30 0 -24 40 9 59 15 9
28 19 28 24 0 4 5 7 10 7 6 0 10 -4 10 -8z m627 -58 c-5 -61 -11 -83 -21 -73
-15 15 -1 139 16 139 6 0 8 -27 5 -66z m-577 41 c0 -8 -7 -15 -15 -15 -8 0
-15 -4 -15 -10 0 -5 -5 -10 -10 -10 -12 0 21 49 33 50 4 0 7 -7 7 -15z m140
11 c0 -3 -4 -8 -10 -11 -5 -3 -10 -1 -10 4 0 6 5 11 10 11 6 0 10 -2 10 -4z
m-2500 -31 c13 -14 18 -25 12 -25 -6 0 -14 5 -17 10 -3 6 -14 10 -23 10 -12 0
-13 -3 -4 -12 7 -7 12 -16 12 -22 0 -6 -5 -5 -12 2 -19 19 -30 14 -23 -10 6
-19 5 -21 -6 -10 -18 17 -30 15 -23 -3 4 -9 0 -15 -9 -15 -9 0 -17 -6 -19 -13
-2 -11 -7 -10 -22 4 -18 18 -18 19 6 28 14 5 28 17 31 25 4 9 13 16 22 16 8 0
15 6 15 14 0 13 12 23 31 25 3 1 16 -10 29 -24z m2540 10 c-7 -8 -17 -15 -23
-15 -6 0 -2 7 9 15 25 19 30 19 14 0z m-420 1 c0 -5 -75 -56 -83 -56 -17 0 -4
20 26 39 29 18 57 27 57 17z m284 -11 c-4 -8 -8 -15 -10 -15 -2 0 -4 7 -4 15
0 8 4 15 10 15 5 0 7 -7 4 -15z m181 -5 c-10 -11 -21 -18 -23 -15 -3 3 3 12
14 20 27 20 30 18 9 -5z m-450 -25 c-32 -26 -45 -31 -45 -16 0 13 41 41 60 41
9 0 4 -9 -15 -25z m-2835 1 c0 -11 -19 -15 -25 -6 -3 5 1 10 9 10 9 0 16 -2
16 -4z m3080 -6 c0 -5 -5 -10 -11 -10 -5 0 -7 5 -4 10 3 6 8 10 11 10 2 0 4
-4 4 -10z m55 0 c-3 -5 -12 -10 -18 -10 -7 0 -6 4 3 10 19 12 23 12 15 0z
m-2267 -46 c-10 -10 -28 6 -28 24 0 15 1 15 17 -1 9 -9 14 -19 11 -23z m1756
21 c24 -18 19 -25 -16 -18 -17 3 -25 10 -21 19 6 17 13 17 37 -1z m-1924 -4
c13 20 31 -1 24 -29 -7 -25 -24 -30 -24 -7 0 8 -7 15 -16 15 -10 0 -14 -6 -10
-15 3 -9 0 -15 -10 -15 -8 0 -12 -4 -9 -10 3 -5 2 -10 -4 -10 -21 0 -23 24 -4
39 11 9 17 23 15 31 -5 13 -3 13 12 1 15 -13 19 -13 26 0z m-645 -11 c3 -5 2
-10 -4 -10 -5 0 -13 5 -16 10 -3 6 -2 10 4 10 5 0 13 -4 16 -10z m3067 -2 c-7
-7 -12 -28 -12 -48 0 -19 -5 -51 -11 -70 -6 -19 -13 -48 -15 -65 -2 -16 -6
-36 -9 -42 -6 -16 -52 -17 -57 -1 -3 8 -28 11 -81 10 l-77 -3 6 43 c4 24 12
72 18 108 l11 65 110 6 c61 3 114 6 120 7 5 1 4 -3 -3 -10z m-2282 -13 c0 -9
-6 -12 -15 -9 -8 4 -15 10 -15 15 0 5 7 9 15 9 8 0 15 -7 15 -15z m1238 3 c9
-12 -2 -111 -23 -194 -6 -28 -28 -36 -60 -24 -14 5 -55 10 -90 11 -53 1 -65 5
-65 18 0 17 17 128 26 174 l6 27 98 0 c66 0 101 -4 108 -12z m464 -28 c-16
-29 -42 -41 -42 -20 0 6 5 10 10 10 6 0 15 12 20 26 6 14 14 23 19 19 6 -3 3
-18 -7 -35z m-1619 0 c-4 -16 -11 -19 -32 -13 -32 7 -40 13 -19 13 9 0 21 7
28 15 16 19 30 11 23 -15z m2227 5 c-7 -9 -15 -13 -18 -10 -3 2 1 11 8 20 7 9
15 13 18 10 3 -2 -1 -11 -8 -20z m510 15 c0 -5 -5 -10 -11 -10 -5 0 -7 5 -4
10 3 6 8 10 11 10 2 0 4 -4 4 -10z m-3565 -10 c3 -5 1 -10 -4 -10 -6 0 -11 5
-11 10 0 6 2 10 4 10 3 0 8 -4 11 -10z m710 0 c3 -5 -1 -10 -10 -10 -11 0 -15
-5 -11 -15 3 -8 1 -15 -4 -15 -14 0 -22 19 -16 35 6 17 32 20 41 5z m1795 1
c0 -6 -5 -13 -10 -16 -6 -4 -8 -10 -6 -14 3 -4 -1 -8 -8 -8 -10 0 -10 6 -2 24
11 23 26 31 26 14z m-1560 -11 c0 -5 -4 -10 -10 -10 -5 0 -10 5 -10 10 0 6 5
10 10 10 6 0 10 -4 10 -10z m1450 4 c0 -15 -22 -44 -34 -44 -15 0 -16 16 -3
38 8 12 37 17 37 6z m770 -13 c0 -5 -7 -12 -16 -15 -14 -5 -15 -4 -4 9 14 17
20 19 20 6z m-2510 -26 c15 -18 -1 -20 -18 -3 -9 9 -12 8 -12 -5 0 -18 -15
-23 -25 -8 -3 6 3 14 12 20 24 14 28 14 43 -4z m135 4 c11 -17 -1 -21 -15 -4
-8 9 -8 15 -2 15 6 0 14 -5 17 -11z m-40 -10 c11 -17 -1 -21 -15 -4 -8 9 -8
15 -2 15 6 0 14 -5 17 -11z m135 1 c0 -5 -2 -10 -4 -10 -3 0 -8 5 -11 10 -3 6
-1 10 4 10 6 0 11 -4 11 -10z m-35 -19 c3 -5 1 -12 -5 -16 -5 -3 -10 1 -10 9
0 18 6 21 15 7z m-125 -11 c0 -5 -4 -10 -9 -10 -6 0 -13 5 -16 10 -3 6 1 10 9
10 9 0 16 -4 16 -10z m-45 -10 c3 -5 1 -10 -4 -10 -6 0 -11 5 -11 10 0 6 2 10
4 10 3 0 8 -4 11 -10z m3630 -81 c4 -6 -2 -13 -14 -16 -12 -3 -21 -10 -21 -15
0 -6 -18 -28 -40 -50 -53 -53 -51 -32 3 36 42 54 60 66 72 45z m-45 -118 c0
-12 -20 -25 -27 -18 -7 7 6 27 18 27 5 0 9 -4 9 -9z m-149 -40 c-24 -24 -40
-28 -21 -6 7 8 9 15 4 16 -5 0 0 4 11 8 28 12 30 6 6 -18z m69 21 c0 -13 -12
-22 -22 -16 -10 6 -1 24 13 24 5 0 9 -4 9 -8z m204 -47 c-15 -20 -29 -33 -32
-31 -5 6 40 65 51 65 4 1 -4 -15 -19 -34z m-159 15 c3 -5 -3 -10 -14 -10 -12
0 -21 5 -21 10 0 6 6 10 14 10 8 0 18 -4 21 -10z m105 -10 c0 -11 -4 -20 -10
-20 -5 0 -10 9 -10 20 0 11 5 20 10 20 6 0 10 -9 10 -20z m-187 -11 c-6 -6
-17 -8 -24 -3 -9 5 -8 9 7 14 23 9 31 3 17 -11z m287 -9 c-6 -11 -12 -20 -14
-20 -2 0 -2 9 1 20 3 11 9 20 15 20 5 0 4 -9 -2 -20z m-240 -10 c0 -5 -7 -10
-16 -10 -8 0 -12 5 -9 10 3 6 10 10 16 10 5 0 9 -4 9 -10z m105 -10 c3 -5 -1
-10 -9 -10 -9 0 -16 5 -16 10 0 6 4 10 9 10 6 0 13 -4 16 -10z m-150 -40 c-3
-5 -11 -10 -16 -10 -6 0 -7 5 -4 10 3 6 11 10 16 10 6 0 7 -4 4 -10z m115 0
c0 -5 -4 -10 -10 -10 -5 0 -10 5 -10 10 0 6 5 10 10 10 6 0 10 -4 10 -10z
m-290 -20 c0 -5 -7 -10 -16 -10 -8 0 -12 5 -9 10 3 6 10 10 16 10 5 0 9 -4 9
-10z m743 4 c3 -3 -21 -33 -54 -65 -32 -33 -59 -64 -59 -69 0 -6 -7 -10 -16
-10 -18 0 -14 6 66 98 45 52 52 57 63 46z m-839 -55 c-9 -11 -19 -17 -21 -15
-8 7 21 45 30 39 4 -3 1 -14 -9 -24z m690 2 c3 -5 16 -7 28 -3 19 5 16 -2 -17
-41 -22 -25 -47 -46 -55 -46 -10 1 -10 3 3 6 9 2 17 10 17 18 0 7 7 18 15 25
8 7 15 16 15 21 0 14 -17 11 -34 -7 -9 -8 -24 -13 -34 -11 -14 4 -14 6 6 12
12 4 22 14 22 21 0 16 26 19 34 5z m145 -29 c8 -14 5 -18 -11 -19 -11 -1 -26
-10 -33 -20 -7 -10 -17 -15 -21 -10 -4 4 2 16 14 27 12 12 22 25 22 30 0 16
19 11 29 -8z m-929 -17 c-7 -9 -15 -13 -17 -11 -7 7 7 26 19 26 6 0 6 -6 -2
-15z m675 5 c-3 -5 -13 -10 -21 -10 -8 0 -12 5 -9 10 3 6 13 10 21 10 8 0 12
-4 9 -10z m-70 -20 c-3 -5 -10 -10 -16 -10 -5 0 -9 5 -9 10 0 6 7 10 16 10 8
0 12 -4 9 -10z m-800 -20 c4 -6 15 -8 26 -5 24 8 25 -11 2 -23 -21 -11 -73
-10 -73 1 0 4 0 14 0 22 0 17 35 21 45 5z m845 6 c0 -3 -4 -8 -10 -11 -5 -3
-10 -1 -10 4 0 6 5 11 10 11 6 0 10 -2 10 -4z m57 -2 c-3 -3 -12 -4 -19 -1 -8
3 -5 6 6 6 11 1 17 -2 13 -5z m-727 -8 c0 -2 -7 -6 -15 -10 -8 -3 -15 -1 -15
4 0 6 7 10 15 10 8 0 15 -2 15 -4z m870 -16 c0 -5 -5 -10 -11 -10 -5 0 -7 5
-4 10 3 6 8 10 11 10 2 0 4 -4 4 -10z m-65 -10 c3 -5 1 -10 -4 -10 -6 0 -11 5
-11 10 0 6 2 10 4 10 3 0 8 -4 11 -10z m-867 -12 c-3 -7 -13 -14 -24 -14 -10
-1 -27 -5 -38 -9 -14 -6 -17 -4 -14 6 4 12 30 22 71 28 5 0 7 -5 5 -11z m-31
-62 c-3 -10 -58 -28 -65 -21 -3 2 -2 10 1 18 6 16 69 19 64 3z m-98 -47 c19
-18 27 -20 47 -10 31 14 44 14 44 1 0 -5 -11 -10 -24 -10 -13 0 -26 -6 -29
-12 -3 -10 -7 -10 -20 0 -9 8 -25 11 -36 7 -16 -5 -20 -3 -15 9 7 19 -7 21
-24 4 -15 -15 -24 -6 -16 16 9 22 46 20 73 -5z m121 -33 c0 -3 -4 -8 -10 -11
-5 -3 -10 -1 -10 4 0 6 5 11 10 11 6 0 10 -2 10 -4z m-220 -19 c0 -19 -27 -53
-36 -45 -9 10 12 58 26 58 5 0 10 -6 10 -13z m33 -9 c3 -10 9 -10 26 0 28 16
31 16 29 -11 -2 -20 -7 -23 -40 -22 -33 0 -38 3 -38 23 0 24 15 30 23 10z
m137 -3 c0 -2 -14 -12 -31 -21 -23 -12 -30 -12 -27 -3 3 8 15 16 29 20 13 4
25 7 27 8 1 1 2 -1 2 -4z m50 -14 c0 -6 -4 -13 -10 -16 -5 -3 -10 1 -10 9 0 9
5 16 10 16 6 0 10 -4 10 -9z m-180 -50 c0 -3 -15 -5 -32 -4 -45 2 -45 2 -30
12 14 9 62 3 62 -8z m-85 -1 c-3 -5 -10 -10 -16 -10 -5 0 -9 5 -9 10 0 6 7 10
16 10 8 0 12 -4 9 -10z m122 4 c-3 -3 -12 -4 -19 -1 -8 3 -5 6 6 6 11 1 17 -2
13 -5z m53 2 c0 -11 -19 -15 -25 -6 -3 5 1 10 9 10 9 0 16 -2 16 -4z m40 -6
c0 -5 -4 -10 -10 -10 -5 0 -10 5 -10 10 0 6 5 10 10 10 6 0 10 -4 10 -10z
m745 -43 c9 -10 11 -25 6 -54 -12 -66 -28 -77 -74 -51 -21 12 -254 22 -243 10
3 -3 -2 -11 -11 -17 -13 -10 -15 -18 -7 -35 7 -15 6 -55 -3 -124 -7 -55 -10
-109 -7 -118 3 -10 -2 -19 -16 -23 -43 -14 -5 -25 85 -25 64 0 96 -4 101 -12
8 -13 7 -70 -2 -100 -6 -21 -41 -23 -66 -4 -27 20 -138 13 -155 -10 -9 -12
-10 -21 -2 -30 7 -8 8 -33 3 -71 -4 -32 -7 -61 -6 -65 5 -20 -22 -114 -35
-125 -33 -26 -1 -33 142 -33 161 0 161 0 149 -76 -7 -49 -26 -61 -61 -39 -19
13 -59 16 -235 15 -133 -1 -214 2 -216 8 -3 10 11 104 78 527 17 105 39 248
50 318 11 71 22 133 25 138 4 5 111 9 246 9 186 0 243 -3 254 -13z m-1225
-1337 c0 -5 -4 -10 -10 -10 -5 0 -10 5 -10 10 0 6 5 10 10 10 6 0 10 -4 10
-10z m-241 -146 c2 -2 2 -6 0 -9 -8 -7 -49 7 -49 17 0 8 38 2 49 -8z m1667
-121 c-10 -10 -19 5 -10 18 6 11 8 11 12 0 2 -7 1 -15 -2 -18z"/>
<path d="M7150 5280 c-9 -6 -10 -10 -3 -10 6 0 15 5 18 10 8 12 4 12 -15 0z"/>
<path d="M6980 4829 c0 -5 5 -7 10 -4 6 3 10 8 10 11 0 2 -4 4 -10 4 -5 0 -10
-5 -10 -11z"/>
<path d="M3688 7113 c7 -3 16 -2 19 1 4 3 -2 6 -13 5 -11 0 -14 -3 -6 -6z"/>
<path d="M3910 7110 c0 -5 4 -10 9 -10 6 0 13 5 16 10 3 6 -1 10 -9 10 -9 0
-16 -4 -16 -10z"/>
<path d="M3800 7100 c0 -5 7 -10 15 -10 8 0 15 5 15 10 0 6 -7 10 -15 10 -8 0
-15 -4 -15 -10z"/>
<path d="M3595 7069 c-10 -15 3 -25 16 -12 7 7 7 13 1 17 -6 3 -14 1 -17 -5z"/>
<path d="M3640 7070 c0 -5 4 -10 9 -10 6 0 13 5 16 10 3 6 -1 10 -9 10 -9 0
-16 -4 -16 -10z"/>
<path d="M4755 7070 c-3 -5 -3 -10 2 -10 4 0 0 -5 -11 -11 -14 -9 -20 -8 -27
2 -7 11 -9 10 -9 -3 0 -10 -10 -20 -25 -24 -14 -3 -22 -10 -19 -15 7 -11 46
-1 56 14 3 6 28 10 55 9 46 -1 47 0 21 11 -24 11 -25 14 -10 24 15 11 15 12
-5 12 -12 1 -25 -3 -28 -9z"/>
<path d="M3536 7054 c-4 -10 -1 -14 6 -12 15 5 23 28 10 28 -5 0 -13 -7 -16
-16z"/>
<path d="M4667 7064 c-11 -11 3 -24 18 -18 8 4 12 10 9 15 -6 11 -18 12 -27 3z"/>
<path d="M4865 7060 c-11 -4 -28 -18 -38 -30 -13 -15 -25 -20 -42 -16 -14 4
-27 0 -35 -9 -7 -9 -29 -15 -51 -15 -22 0 -39 -5 -39 -11 0 -7 12 -10 30 -7
36 5 40 -9 6 -18 -14 -3 -27 -12 -30 -20 -3 -8 -20 -14 -41 -14 -19 0 -35 -4
-35 -9 0 -14 93 -8 98 7 2 6 10 12 17 12 8 0 16 8 19 18 6 17 72 52 99 52 7 0
31 16 53 35 37 33 33 44 -11 25z"/>
<path d="M6980 7045 c0 -8 4 -15 9 -15 5 0 11 7 15 15 3 9 0 15 -9 15 -8 0
-15 -7 -15 -15z"/>
<path d="M7040 7050 c0 -5 7 -7 15 -4 10 4 13 2 10 -8 -6 -16 31 -55 42 -44 4
4 1 11 -7 16 -8 5 -12 12 -8 15 4 4 14 -5 24 -20 l18 -27 18 24 c17 22 18 22
18 2 0 -28 10 -36 28 -21 13 10 14 8 8 -11 -8 -25 11 -32 20 -7 7 16 34 21 34
6 0 -5 -7 -14 -15 -21 -17 -14 -20 -50 -5 -50 6 0 10 9 10 20 0 11 4 20 9 20
5 0 12 8 15 18 2 9 4 3 3 -15 -1 -18 1 -32 6 -33 4 0 6 1 5 3 -1 1 7 12 17 25
23 26 50 29 59 6 10 -27 -12 -54 -44 -54 -17 0 -30 -5 -30 -11 0 -11 25 -8 65
7 14 6 16 3 10 -15 -6 -21 -5 -22 17 -10 14 7 18 14 10 17 -14 4 -17 42 -3 42
5 0 12 -11 15 -24 9 -36 35 -59 51 -46 13 11 27 0 38 -33 4 -9 18 -22 32 -27
14 -5 25 -17 24 -27 0 -11 -3 -13 -6 -5 -2 6 -12 12 -20 12 -14 0 -14 -3 1
-19 10 -11 15 -24 12 -30 -4 -5 -2 -12 4 -16 5 -3 7 -19 3 -35 -4 -25 -2 -30
13 -30 11 0 25 4 33 9 17 11 5 32 -14 24 -8 -3 -15 0 -15 6 0 6 5 10 12 9 6
-2 14 5 16 14 2 13 -1 16 -12 12 -13 -5 -15 -1 -11 22 3 17 -1 40 -9 54 -8 14
-20 35 -25 48 -6 12 -15 22 -21 22 -5 0 -10 6 -10 13 0 6 -10 24 -23 39 -12
14 -33 40 -47 57 -27 34 -58 46 -135 56 -27 4 -88 13 -134 21 -99 17 -121 17
-121 4z m230 -50 c0 -5 -5 -10 -11 -10 -5 0 -7 5 -4 10 3 6 8 10 11 10 2 0 4
-4 4 -10z m34 -25 c3 -8 1 -15 -3 -15 -5 0 -11 7 -15 15 -3 8 -1 15 3 15 5 0
11 -7 15 -15z m126 -55 c0 -5 -2 -10 -4 -10 -3 0 -8 5 -11 10 -3 6 -1 10 4 10
6 0 11 -4 11 -10z m13 -34 c4 -10 1 -13 -8 -9 -8 3 -12 9 -9 14 7 12 11 11 17
-5z"/>
<path d="M5553 7023 c9 -9 19 -14 23 -11 10 10 -6 28 -24 28 -15 0 -15 -1 1
-17z"/>
<path d="M7010 7020 c0 -5 5 -10 11 -10 6 0 20 -10 31 -22 17 -20 17 -19 -2
10 -21 31 -40 42 -40 22z"/>
<path d="M2185 6979 c-52 -26 -158 -141 -189 -204 -27 -55 -56 -155 -56 -195
0 -46 -50 -134 -114 -200 -111 -115 -148 -199 -147 -335 1 -107 25 -190 83
-282 70 -111 128 -131 263 -92 119 34 213 31 296 -9 35 -17 75 -39 87 -50 l24
-18 -73 -20 c-40 -11 -74 -25 -76 -30 -5 -15 74 -102 99 -110 12 -4 43 -20 69
-36 26 -16 64 -30 84 -32 19 -2 38 -5 40 -8 2 -2 -30 -38 -73 -79 -42 -41 -89
-92 -105 -112 -15 -20 -52 -64 -82 -99 -47 -53 -67 -88 -51 -88 5 0 114 114
260 273 l118 127 84 0 c49 0 84 4 84 10 0 6 -9 10 -20 10 -36 0 -21 16 28 28
26 7 50 13 54 13 4 0 22 4 39 9 32 9 148 13 204 6 55 -6 215 -39 211 -44 -2
-2 -58 -6 -123 -8 -65 -3 -129 -7 -143 -11 -14 -3 -32 -8 -40 -10 -8 -2 -34
-4 -57 -6 -24 -1 -43 -5 -43 -9 0 -5 -13 -8 -29 -8 -16 0 -34 -7 -41 -15 -7
-8 -18 -15 -25 -15 -8 0 -28 -12 -45 -26 l-31 -27 23 -11 c31 -15 34 -48 9
-99 -23 -48 -56 -171 -70 -268 -32 -205 -39 -239 -51 -254 -16 -20 -83 -55
-104 -55 -8 0 -17 -3 -19 -7 -6 -10 108 -184 127 -195 8 -5 12 -16 9 -28 -4
-16 -11 -19 -32 -14 -14 4 -36 12 -47 20 -12 7 -48 14 -80 16 l-58 3 -108 180
c-60 99 -113 181 -118 183 -14 5 -21 -52 -12 -94 5 -23 4 -68 -2 -111 -9 -66
-8 -77 12 -116 12 -25 22 -47 22 -51 0 -11 63 -65 82 -72 35 -11 15 -64 -24
-64 -11 0 -15 5 -12 15 4 9 -3 16 -20 21 -29 7 -30 8 -16 33 8 15 6 17 -14 14
-19 -4 -26 2 -37 26 -12 27 -15 29 -31 15 -17 -16 -58 -11 -58 7 0 6 -29 9
-70 8 -39 -1 -73 0 -76 4 -3 3 29 229 72 501 l78 496 98 0 c59 0 98 4 98 10 0
12 4 11 -100 15 -47 2 -90 0 -97 -3 -21 -12 -66 -86 -69 -115 -2 -15 -9 -38
-15 -50 -12 -21 -12 -21 -19 -2 -14 38 29 115 113 202 28 29 48 55 45 59 -13
12 -121 -60 -182 -121 -82 -83 -146 -187 -197 -321 -22 -60 -45 -118 -50 -129
-12 -28 -55 -194 -74 -284 -9 -41 -18 -131 -21 -200 -10 -213 34 -368 135
-467 53 -53 112 -83 177 -90 42 -5 55 -2 86 20 21 14 54 28 74 32 25 5 58 26
103 67 36 33 81 67 100 76 32 15 34 15 51 -7 23 -29 21 -37 -58 -212 -37 -84
-95 -225 -97 -240 -1 -8 -10 -32 -19 -52 -9 -21 -28 -84 -42 -140 -45 -177
-22 -292 69 -351 38 -25 49 -27 147 -27 200 0 390 -47 607 -150 109 -52 139
-58 176 -38 15 7 129 12 357 15 184 2 371 5 415 7 44 2 94 5 112 5 22 1 43 11
63 31 24 24 39 30 73 30 41 0 67 13 67 33 0 5 -7 4 -15 -3 -12 -10 -75 -10
-132 0 -2 0 -3 5 -3 10 0 6 10 8 24 4 43 -10 50 7 12 27 -45 24 -57 24 -50 2
4 -11 3 -14 -3 -7 -4 6 -18 16 -30 22 -19 10 -20 9 -16 -9 5 -19 4 -20 -16 -8
-22 14 -24 23 -13 50 6 13 12 14 32 6 39 -15 100 -15 100 0 0 19 -29 28 -49
16 -11 -7 -26 -6 -49 4 -38 16 -33 38 7 29 l26 -7 -23 19 c-18 14 -22 24 -17
45 8 30 15 33 33 15 7 -7 12 -9 12 -5 0 4 9 3 20 -3 16 -9 19 -8 13 6 -5 14
-3 15 15 5 11 -6 29 -11 39 -11 10 0 2 8 -21 21 -21 11 -45 18 -52 15 -16 -6
-44 3 -44 14 0 5 27 7 60 6 33 -1 60 2 60 6 0 4 -3 7 -7 6 -5 -1 -18 3 -31 10
-12 7 -32 12 -44 10 -12 -2 -23 3 -25 10 -3 8 7 12 31 12 41 0 46 12 14 34
-16 11 -18 16 -8 17 8 1 20 2 25 4 6 1 16 3 23 3 22 3 13 22 -10 22 -13 0 -30
5 -38 10 -11 7 -5 10 23 10 45 0 49 18 5 22 l-33 3 43 19 c23 11 42 24 42 29
0 4 -5 5 -12 1 -6 -4 -24 -8 -40 -9 l-28 -3 38 31 c20 16 29 27 20 24 -50 -19
-53 -19 -29 2 18 16 20 21 7 21 -9 0 -16 5 -16 10 0 6 5 10 10 10 6 0 10 5 10
11 0 6 -9 9 -20 6 -22 -6 -26 3 -8 21 9 9 5 19 -17 42 -15 16 -31 27 -36 25
-4 -3 -10 1 -12 7 -4 10 -8 9 -17 -2 -9 -11 -13 -12 -17 -2 -6 14 -33 16 -33
2 0 -5 -5 -10 -10 -10 -6 0 -16 -5 -23 -10 -7 -6 -31 -24 -54 -41 -60 -43
-209 -224 -341 -412 -12 -17 -35 -43 -50 -57 -15 -14 -33 -38 -41 -53 -8 -15
-20 -27 -27 -27 -6 0 -14 -9 -17 -19 -2 -11 -24 -32 -48 -48 -68 -43 -96 -53
-122 -43 -12 5 -16 9 -9 9 10 1 12 10 7 34 -4 17 -8 33 -10 35 -1 1 -16 -5
-33 -14 -18 -8 -40 -13 -50 -11 -13 4 -13 5 4 6 31 2 48 25 30 40 -8 7 -20 11
-28 11 -21 -3 -58 11 -58 22 0 6 13 8 30 4 17 -3 30 -4 30 -2 0 10 -51 56 -62
56 -8 0 -23 7 -34 15 -12 8 -24 12 -27 9 -8 -8 -115 24 -123 38 -5 8 4 9 30 4
44 -8 46 -2 6 19 -42 22 -47 19 -45 -25 3 -56 -9 -62 -90 -44 -39 8 -83 17
-100 20 -100 18 -149 31 -153 42 -2 6 4 12 14 12 14 0 15 3 7 11 -7 7 -38 13
-70 14 -32 2 -71 8 -86 14 -37 14 -38 14 -30 -6 6 -16 5 -16 -10 -4 -10 7 -36
15 -59 17 -47 4 -56 10 -41 25 8 8 7 19 0 39 -11 29 2 129 25 189 l9 24 22
-21 c28 -27 69 -42 112 -42 36 0 178 52 205 74 8 7 42 28 75 47 85 47 160 107
230 181 71 75 125 138 125 145 0 2 17 25 39 51 36 44 151 225 151 238 0 3 6
12 14 20 8 7 17 19 19 26 4 10 8 9 16 -2 9 -13 12 -12 24 4 14 19 15 19 26 -2
13 -24 34 -21 24 3 -3 10 2 15 16 15 12 0 21 4 21 9 0 6 18 9 40 9 30 0 40 -4
41 -17 0 -9 6 0 13 19 14 40 4 72 -22 68 -21 -4 -19 31 6 186 12 72 14 110 8
129 -8 22 -4 48 21 125 31 98 42 150 62 297 6 44 17 121 24 170 12 87 13 90
40 93 18 2 29 -2 33 -12 8 -20 24 -21 24 -1 0 8 -7 15 -15 15 -8 0 -15 5 -15
11 0 6 -14 9 -32 7 -25 -2 -36 -10 -47 -33 -42 -91 -100 -95 -168 -11 -16 19
0 30 24 18 31 -15 72 2 119 48 52 51 109 141 118 187 5 22 14 33 31 37 15 4
23 13 22 25 -1 12 -6 17 -15 13 -8 -3 -18 1 -24 9 -7 10 -11 11 -14 2 -4 -10
-10 -10 -25 0 -17 10 -22 9 -30 -5 -12 -22 -29 -23 -29 -3 0 8 -7 15 -15 15
-8 0 -15 -4 -15 -9 0 -10 -46 -21 -97 -24 -17 -1 -34 -5 -38 -9 -4 -3 -18 -4
-31 -2 -15 3 -37 -4 -55 -17 -22 -16 -33 -18 -43 -10 -10 8 -17 7 -26 -4 -10
-12 -16 -13 -26 -4 -11 9 -17 9 -28 0 -12 -10 -41 -16 -121 -24 -11 -1 -25 -5
-31 -10 -7 -4 -14 0 -17 8 -5 12 -10 12 -37 -1 -18 -9 -38 -13 -48 -8 -22 9
-42 9 -65 -1 -9 -4 -23 -3 -30 3 -6 5 -24 8 -39 5 -14 -2 -29 1 -33 7 -3 5
-20 10 -36 10 -16 0 -44 6 -62 13 -18 8 -49 12 -69 9 -30 -3 -38 -1 -38 12 0
15 -39 38 -58 35 -21 -3 -31 3 -34 23 -2 14 -11 22 -26 23 -13 1 -33 13 -45
27 -12 14 -32 28 -45 32 -16 6 -21 13 -17 26 4 12 -3 25 -20 38 -14 11 -25 26
-25 34 0 15 -20 38 -55 63 -16 12 -17 16 -7 23 10 7 3 18 -28 45 -27 23 -40
41 -37 51 4 9 -2 17 -14 21 -12 4 -18 12 -15 21 3 8 -7 29 -23 47 -16 17 -31
43 -35 57 -4 14 -11 34 -16 45 -40 91 -55 174 -54 290 0 66 7 145 14 175 17
73 63 167 103 210 55 60 62 70 46 70 -8 -1 -32 -10 -54 -21z m-163 -514 c-2
-14 -11 -25 -19 -25 -9 0 -13 -6 -10 -14 3 -7 1 -18 -4 -23 -6 -6 -6 -25 0
-51 10 -45 -1 -56 -20 -21 -20 37 7 139 32 123 5 -3 9 4 9 15 0 12 4 21 9 21
4 0 6 -11 3 -25z m-4 -92 c-1 -37 -2 -40 -5 -15 -2 17 -9 32 -14 32 -8 0 10
28 19 30 1 0 1 -21 0 -47z m-63 -63 c-3 -5 -10 -10 -16 -10 -5 0 -9 5 -9 10 0
6 7 10 16 10 8 0 12 -4 9 -10z m35 -26 c0 -8 -4 -12 -10 -9 -5 3 -10 10 -10
16 0 5 5 9 10 9 6 0 10 -7 10 -16z m-115 -3 c3 -5 1 -12 -5 -16 -5 -3 -10 1
-10 9 0 18 6 21 15 7z m75 -22 c0 -17 -5 -29 -11 -27 -6 2 -10 7 -10 11 1 4 1
16 1 27 0 11 5 20 10 20 6 0 10 -14 10 -31z m60 -32 c0 -3 -8 -4 -17 -2 -10 2
-22 4 -27 4 -5 1 -3 8 4 16 10 12 14 12 26 0 8 -7 14 -16 14 -18z m-155 -37
c3 -5 1 -10 -4 -10 -6 0 -11 5 -11 10 0 6 2 10 4 10 3 0 8 -4 11 -10z m145 -5
c0 -8 -4 -15 -9 -15 -13 0 -22 16 -14 24 11 11 23 6 23 -9z m-41 -50 c1 -17
-1 -17 -9 -5 -5 8 -9 26 -9 40 0 23 1 23 9 5 5 -11 9 -29 9 -40z m61 -9 c0 -3
-4 -8 -10 -11 -5 -3 -10 -1 -10 4 0 6 5 11 10 11 6 0 10 -2 10 -4z m-20 -114
c0 -15 -2 -15 -10 -2 -13 20 -13 33 0 25 6 -3 10 -14 10 -23z m570 -572 c13
-8 13 -10 -2 -10 -9 0 -20 5 -23 10 -8 13 5 13 25 0z m845 -83 c57 -32 75 -74
75 -176 0 -46 -7 -122 -15 -170 -36 -212 -43 -266 -35 -282 5 -8 6 -26 3 -37
-3 -12 0 -28 6 -36 9 -10 8 -15 -2 -19 -12 -5 -33 -112 -42 -217 -6 -69 -28
-86 -73 -54 -15 11 -41 15 -82 13 -33 -1 -63 0 -66 4 -3 3 8 95 25 204 18 109
33 207 34 218 2 19 -4 20 -86 21 -50 0 -95 -5 -103 -11 -13 -9 -14 -25 -7 -95
7 -73 11 -85 26 -82 12 2 17 -4 17 -23 0 -14 4 -25 9 -25 5 0 11 -10 13 -22 2
-13 9 -22 16 -21 18 4 15 -14 -4 -21 -12 -5 -15 -14 -10 -36 5 -25 2 -30 -14
-30 -13 0 -17 -5 -14 -14 3 -8 -15 -34 -43 -63 -78 -79 -79 -80 -98 -39 l-17
36 -74 0 c-41 0 -74 3 -74 8 0 22 121 773 130 807 18 64 71 129 131 159 50 24
62 26 193 26 127 0 145 -2 181 -23z m-1495 -407 c0 -4 -9 -10 -20 -13 -11 -3
-20 -1 -20 4 0 5 5 9 11 9 5 0 7 4 4 10 -3 6 1 7 9 4 9 -3 16 -10 16 -14z
m-21 -108 c1 -7 -3 -10 -9 -7 -5 3 -10 18 -9 33 0 24 1 25 9 7 5 -11 9 -26 9
-33z m-30 -45 c1 -5 -3 -5 -9 -2 -5 3 -10 16 -9 28 0 21 1 21 9 2 5 -11 9 -24
9 -28z m6 -37 c3 -5 1 -10 -4 -10 -6 0 -11 5 -11 10 0 6 2 10 4 10 3 0 8 -4
11 -10z m-25 -26 c0 -8 -4 -12 -10 -9 -5 3 -10 13 -10 21 0 8 5 12 10 9 6 -3
10 -13 10 -21z m0 -76 c0 -19 -2 -20 -10 -8 -13 19 -13 30 0 30 6 0 10 -10 10
-22z m810 -158 c0 -5 -5 -10 -11 -10 -5 0 -7 -4 -4 -10 7 -11 -8 -14 -18 -3
-8 7 11 33 24 33 5 0 9 -4 9 -10z m9 -179 c7 -5 11 -13 8 -18 -9 -15 37 -33
54 -22 20 13 29 11 29 -6 0 -8 5 -15 10 -15 19 0 10 -29 -12 -41 -19 -10 -24
-9 -36 10 -19 28 -28 27 -36 -4 -9 -34 -55 -36 -232 -8 -84 13 -101 18 -99 32
2 9 4 21 4 26 1 6 36 9 91 6 88 -3 122 4 180 39 19 11 22 11 39 1z m255 -7
c26 -10 19 -19 -34 -43 -52 -24 -84 -22 -94 6 -9 22 -2 26 37 25 17 -1 39 3
47 8 18 11 23 12 44 4z m1181 -703 c-6 -5 -25 10 -25 20 0 5 6 4 14 -3 8 -7
12 -15 11 -17z m-1725 -376 c0 -3 -9 -5 -20 -5 -11 0 -20 7 -20 15 0 13 4 14
20 5 11 -6 20 -13 20 -15z m80 -5 c19 -6 14 -7 -21 -6 -26 0 -45 4 -42 9 5 9
29 8 63 -3z m537 -106 c-3 -3 -12 -4 -19 -1 -8 3 -5 6 6 6 11 1 17 -2 13 -5z
m88 -24 c3 -5 1 -10 -4 -10 -6 0 -11 5 -11 10 0 6 2 10 4 10 3 0 8 -4 11 -10z
m140 -126 c-23 -17 -32 -10 -15 11 7 8 17 12 23 8 6 -4 3 -11 -8 -19z m805 5
c0 -14 -16 -11 -29 5 -10 12 -8 13 8 9 12 -3 21 -9 21 -14z"/>
<path d="M3193 5273 c5 -7 0 -9 -11 -6 -13 3 -29 -8 -51 -32 l-32 -37 30 -19
c44 -27 49 -71 24 -216 l-5 -33 59 0 59 0 17 93 c24 128 23 201 -3 227 -11 11
-29 20 -39 20 -11 0 -27 3 -37 7 -11 4 -15 3 -11 -4z"/>
<path d="M2955 4390 c-3 -5 -1 -10 4 -10 6 0 11 5 11 10 0 6 -2 10 -4 10 -3 0
-8 -4 -11 -10z"/>
<path d="M3338 6993 c7 -3 16 -2 19 1 4 3 -2 6 -13 5 -11 0 -14 -3 -6 -6z"/>
<path d="M4598 6973 c-17 -35 -42 -40 -65 -14 -15 19 -29 21 -120 21 -56 0
-113 -4 -127 -10 -25 -9 -35 -38 -18 -54 4 -4 7 -33 7 -63 0 -37 4 -58 13 -60
7 -3 11 1 10 9 -2 9 9 14 35 16 20 2 37 -1 37 -6 0 -7 60 -3 105 9 6 1 18 -1
28 -5 24 -11 40 -3 56 28 13 23 12 28 -2 44 -15 17 -14 19 20 37 20 11 44 19
54 17 9 -2 20 2 24 8 4 6 -5 10 -22 10 l-28 1 24 19 c22 19 22 20 3 20 -13 0
-26 -11 -34 -27z m-103 -93 c3 -5 1 -10 -4 -10 -6 0 -11 5 -11 10 0 6 2 10 4
10 3 0 8 -4 11 -10z m65 -9 c0 -12 -29 -23 -41 -15 -5 3 -7 10 -4 15 8 12 45
12 45 0z"/>
<path d="M5570 6985 c0 -16 9 -19 34 -9 24 9 19 19 -9 22 -16 1 -25 -3 -25
-13z"/>
<path d="M7110 6971 c0 -5 5 -13 10 -16 6 -3 10 -2 10 4 0 5 -4 13 -10 16 -5
3 -10 2 -10 -4z"/>
<path d="M2968 6944 c-49 -25 -65 -46 -28 -37 11 3 20 9 20 14 0 5 8 9 18 9 9
0 23 9 30 20 7 11 11 20 10 20 -2 -1 -24 -12 -50 -26z"/>
<path d="M3130 6960 c0 -5 4 -10 9 -10 6 0 13 5 16 10 3 6 -1 10 -9 10 -9 0
-16 -4 -16 -10z"/>
<path d="M3240 6960 c-9 -6 -10 -10 -3 -10 6 0 15 5 18 10 8 12 4 12 -15 0z"/>
<path d="M7550 6960 c0 -5 5 -10 11 -10 5 0 7 5 4 10 -3 6 -8 10 -11 10 -2 0
-4 -4 -4 -10z"/>
<path d="M7080 6945 c0 -8 4 -15 10 -15 5 0 7 7 4 15 -4 8 -8 15 -10 15 -2 0
-4 -7 -4 -15z"/>
<path d="M7157 6953 c-10 -10 -8 -46 4 -63 8 -12 10 -10 5 9 -3 13 -1 33 5 43
9 17 0 25 -14 11z"/>
<path d="M7601 6948 c9 -7 14 -19 12 -25 -3 -7 0 -13 6 -13 20 0 11 29 -11 40
-20 9 -21 9 -7 -2z"/>
<path d="M7323 6935 c-13 -14 -17 -35 -8 -35 11 0 44 34 39 42 -7 11 -17 9
-31 -7z"/>
<path d="M3144 6926 c-10 -8 -16 -17 -13 -20 3 -3 14 3 24 14 21 23 17 26 -11
6z"/>
<path d="M5196 6923 c-6 -14 -5 -15 5 -6 7 7 10 15 7 18 -3 3 -9 -2 -12 -12z"/>
<path d="M7191 6928 c0 -7 4 -22 9 -33 7 -17 9 -15 9 13 1 17 -3 32 -9 32 -5
0 -10 -6 -9 -12z"/>
<path d="M7570 6929 c0 -5 5 -7 10 -4 6 3 10 8 10 11 0 2 -4 4 -10 4 -5 0 -10
-5 -10 -11z"/>
<path d="M3173 6907 c-27 -26 -29 -37 -8 -37 15 0 55 38 55 52 0 15 -25 7 -47
-15z"/>
<path d="M7656 6915 c4 -8 8 -15 10 -15 2 0 4 7 4 15 0 8 -4 15 -10 15 -5 0
-7 -7 -4 -15z"/>
<path d="M7708 6904 c25 -20 30 -29 22 -39 -9 -11 -7 -12 11 -8 18 5 20 3 14
-16 -6 -21 -5 -22 16 -11 22 13 22 13 -24 56 -25 24 -52 44 -59 44 -7 0 2 -12
20 -26z"/>
<path d="M7520 6909 c0 -5 5 -7 10 -4 6 3 10 8 10 11 0 2 -4 4 -10 4 -5 0 -10
-5 -10 -11z"/>
<path d="M3501 6886 c-9 -10 -9 -16 -1 -21 12 -7 40 11 40 26 0 14 -26 10 -39
-5z"/>
<path d="M3046 6875 c-17 -17 -21 -35 -8 -35 9 0 35 40 29 46 -3 3 -12 -2 -21
-11z"/>
<path d="M3088 6868 c-18 -18 -19 -23 -6 -32 8 -6 13 -17 11 -23 -3 -7 0 -13
6 -13 6 0 11 5 11 10 0 6 7 10 15 10 22 0 18 -21 -5 -27 -11 -3 -20 -10 -20
-15 0 -6 10 -8 21 -5 15 4 28 -1 41 -16 l19 -22 -3 30 c-2 24 2 32 25 43 40
19 47 6 12 -23 l-30 -25 30 11 c32 11 55 27 55 38 0 4 -9 17 -20 29 -12 12
-16 23 -10 27 6 3 10 10 10 16 0 16 -26 10 -44 -10 -13 -15 -14 -20 -4 -24 9
-4 4 -14 -17 -31 -33 -29 -47 -16 -19 16 19 21 19 21 -19 14 -37 -7 -37 -6
-31 18 8 32 1 33 -28 4z"/>
<path d="M4610 6880 c-12 -8 -9 -10 12 -10 15 0 30 5 33 10 8 13 -25 13 -45 0z"/>
<path d="M7245 6880 c-3 -5 1 -10 9 -10 9 0 16 5 16 10 0 6 -4 10 -9 10 -6 0
-13 -4 -16 -10z"/>
<path d="M5555 6870 c-3 -5 -1 -10 4 -10 6 0 11 5 11 10 0 6 -2 10 -4 10 -3 0
-8 -4 -11 -10z"/>
<path d="M7635 6869 c-4 -6 -5 -12 -2 -15 2 -3 7 2 10 11 7 17 1 20 -8 4z"/>
<path d="M3536 6861 c-4 -5 -3 -16 0 -25 3 -9 1 -16 -5 -16 -6 0 -11 -5 -11
-11 0 -20 35 -4 36 17 1 12 4 26 8 33 4 6 1 11 -8 11 -8 0 -17 -4 -20 -9z"/>
<path d="M7230 6845 c0 -8 5 -15 10 -15 6 0 10 7 10 15 0 8 -4 15 -10 15 -5 0
-10 -7 -10 -15z"/>
<path d="M7670 6844 c0 -8 5 -12 10 -9 6 3 10 10 10 16 0 5 -4 9 -10 9 -5 0
-10 -7 -10 -16z"/>
<path d="M3315 6833 c-16 -9 -25 -18 -18 -20 7 -2 22 1 33 7 12 6 24 9 28 6 9
-9 -28 -33 -70 -45 -20 -7 -40 -16 -43 -21 -9 -14 17 -12 40 3 27 17 90 38
105 35 7 -2 15 3 17 10 3 9 -2 12 -13 10 -13 -2 -18 2 -16 15 4 22 -23 22 -63
0z"/>
<path d="M3445 6836 c-18 -7 -25 -15 -18 -19 6 -4 14 -3 18 3 3 5 17 10 31 10
13 0 24 5 24 10 0 13 -18 12 -55 -4z"/>
<path d="M4570 6840 c-25 -15 -5 -21 41 -11 28 6 49 6 62 0 10 -6 26 -7 35 -3
13 6 11 9 -13 14 -44 11 -108 11 -125 0z"/>
<path d="M7276 6835 c4 -8 8 -15 10 -15 2 0 4 7 4 15 0 8 -4 15 -10 15 -5 0
-7 -7 -4 -15z"/>
<path d="M7312 6838 c6 -18 28 -21 28 -4 0 9 -7 16 -16 16 -9 0 -14 -5 -12
-12z"/>
<path d="M7388 6843 c-18 -5 -54 -53 -40 -53 5 0 17 9 27 20 13 14 25 18 39
14 18 -6 19 -5 7 10 -7 9 -14 15 -15 15 0 -1 -9 -3 -18 -6z"/>
<path d="M7454 6826 c-4 -9 -4 -20 0 -23 3 -4 12 -1 18 5 9 9 9 15 0 24 -9 9
-13 7 -18 -6z"/>
<path d="M7786 6821 c-3 -5 1 -12 10 -15 8 -3 12 -10 9 -16 -3 -5 -2 -10 4
-10 10 0 27 -39 23 -53 -1 -4 5 -10 13 -13 8 -4 15 -18 15 -32 0 -14 3 -22 7
-19 3 4 13 1 21 -6 17 -13 17 -15 -21 66 -15 31 -32 57 -37 57 -5 0 -12 11
-16 25 -6 25 -18 32 -28 16z"/>
<path d="M2821 6804 c-10 -11 -10 -19 -2 -27 13 -13 16 -10 25 21 8 25 -3 28
-23 6z"/>
<path d="M3445 6793 c-20 -15 -19 -15 5 -9 14 3 31 6 38 6 6 0 12 5 12 10 0
15 -33 11 -55 -7z"/>
<path d="M7426 6795 c-3 -10 -3 -22 3 -28 12 -12 20 4 11 27 -6 19 -7 19 -14
1z"/>
<path d="M7255 6790 c3 -5 8 -10 11 -10 2 0 4 5 4 10 0 6 -5 10 -11 10 -5 0
-7 -4 -4 -10z"/>
<path d="M7307 6793 c-10 -9 -9 -23 2 -23 5 0 11 7 15 15 5 15 -5 20 -17 8z"/>
<path d="M7385 6789 c-10 -15 3 -25 16 -12 7 7 7 13 1 17 -6 3 -14 1 -17 -5z"/>
<path d="M7470 6776 c0 -9 7 -16 16 -16 9 0 14 5 12 12 -6 18 -28 21 -28 4z"/>
<path d="M7670 6774 c0 -8 5 -12 10 -9 6 4 8 11 5 16 -9 14 -15 11 -15 -7z"/>
<path d="M4264 6759 c-3 -5 16 -9 42 -9 26 0 45 2 43 5 -9 9 -80 12 -85 4z"/>
<path d="M7354 6757 c3 -10 6 -23 6 -28 0 -5 5 -9 10 -9 14 0 12 13 -6 36 -14
17 -15 17 -10 1z"/>
<path d="M3310 6750 c0 -5 7 -10 16 -10 8 0 12 5 9 10 -3 6 -10 10 -16 10 -5
0 -9 -4 -9 -10z"/>
<path d="M7320 6744 c0 -8 5 -12 10 -9 6 4 8 11 5 16 -9 14 -15 11 -15 -7z"/>
<path d="M7755 6750 c3 -5 8 -10 11 -10 2 0 4 5 4 10 0 6 -5 10 -11 10 -5 0
-7 -4 -4 -10z"/>
<path d="M3210 6735 c-10 -12 -10 -15 4 -15 9 0 16 7 16 15 0 8 -2 15 -4 15
-2 0 -9 -7 -16 -15z"/>
<path d="M7400 6740 c0 -5 5 -10 10 -10 6 0 10 5 10 10 0 6 -4 10 -10 10 -5 0
-10 -4 -10 -10z"/>
<path d="M7442 6741 c2 -7 7 -12 11 -12 12 1 9 15 -3 20 -7 2 -11 -2 -8 -8z"/>
<path d="M7650 6740 c0 -5 5 -10 10 -10 6 0 10 5 10 10 0 6 -4 10 -10 10 -5 0
-10 -4 -10 -10z"/>
<path d="M3270 6730 c0 -5 7 -10 15 -10 8 0 15 5 15 10 0 6 -7 10 -15 10 -8 0
-15 -4 -15 -10z"/>
<path d="M3837 6733 c-13 -13 -7 -21 13 -16 11 3 17 9 14 14 -6 11 -18 12 -27
2z"/>
<path d="M7496 6733 c-11 -11 -6 -23 9 -23 8 0 15 4 15 9 0 13 -16 22 -24 14z"/>
<path d="M3375 6720 c-3 -5 -2 -10 4 -10 5 0 13 5 16 10 3 6 2 10 -4 10 -5 0
-13 -4 -16 -10z"/>
<path d="M3438 6720 c-2 -3 -20 -16 -42 -28 -31 -18 -41 -20 -53 -10 -13 10
-13 13 4 19 17 7 17 7 -1 15 -13 5 -21 3 -24 -4 -2 -7 -9 -12 -17 -12 -7 0
-18 -7 -25 -15 -11 -13 -10 -14 4 -9 9 3 29 1 45 -6 24 -10 36 -8 72 8 24 11
54 23 67 26 12 4 22 11 22 16 0 8 -48 9 -52 0z"/>
<path d="M4300 6720 c8 -5 22 -9 30 -9 10 0 8 3 -5 9 -27 12 -43 12 -25 0z"/>
<path d="M7459 6698 c-6 -24 -5 -68 2 -68 5 0 9 16 9 35 0 19 -2 35 -5 35 -3
0 -5 -1 -6 -2z"/>
<path d="M7780 6689 c0 -5 5 -7 10 -4 6 3 10 8 10 11 0 2 -4 4 -10 4 -5 0 -10
-5 -10 -11z"/>
<path d="M7500 6675 c0 -8 5 -15 10 -15 6 0 10 7 10 15 0 8 -4 15 -10 15 -5 0
-10 -7 -10 -15z"/>
<path d="M5222 6660 c-12 -10 -19 -21 -15 -23 8 -5 53 27 53 37 0 11 -15 6
-38 -14z"/>
<path d="M4232 6653 c-30 -12 6 -23 78 -23 83 0 114 6 104 21 -5 9 -159 11
-182 2z"/>
<path d="M5283 6646 l-23 -13 26 -12 c15 -6 29 -9 33 -5 3 4 1 9 -6 11 -7 2
-9 11 -6 19 6 16 6 16 -24 0z"/>
<path d="M7370 6649 c0 -5 5 -7 10 -4 6 3 10 8 10 11 0 2 -4 4 -10 4 -5 0 -10
-5 -10 -11z"/>
<path d="M7410 6650 c0 -5 5 -10 10 -10 6 0 10 5 10 10 0 6 -4 10 -10 10 -5 0
-10 -4 -10 -10z"/>
<path d="M7801 6644 c0 -11 3 -14 6 -6 3 7 2 16 -1 19 -3 4 -6 -2 -5 -13z"/>
<path d="M3090 6630 c8 -5 20 -10 25 -10 6 0 3 5 -5 10 -8 5 -19 10 -25 10 -5
0 -3 -5 5 -10z"/>
<path d="M7870 6630 c0 -5 7 -10 15 -10 8 0 15 5 15 10 0 6 -7 10 -15 10 -8 0
-15 -4 -15 -10z"/>
<path d="M7540 6621 c0 -6 5 -13 10 -16 6 -3 10 1 10 9 0 9 -4 16 -10 16 -5 0
-10 -4 -10 -9z"/>
<path d="M3070 6612 c0 -5 11 -14 25 -20 29 -13 33 -5 8 14 -21 15 -33 18 -33
6z"/>
<path d="M5200 6595 c-20 -25 -4 -29 21 -6 18 16 19 21 7 21 -9 0 -21 -7 -28
-15z"/>
<path d="M7415 6600 c-3 -5 -1 -10 4 -10 6 0 11 5 11 10 0 6 -2 10 -4 10 -3 0
-8 -4 -11 -10z"/>
<path d="M3141 6584 c-11 -13 -11 -18 0 -24 12 -8 38 14 39 33 0 13 -24 7 -39
-9z"/>
<path d="M4750 6590 c0 -5 4 -10 9 -10 6 0 13 5 16 10 3 6 -1 10 -9 10 -9 0
-16 -4 -16 -10z"/>
<path d="M5265 6590 c-3 -5 1 -10 9 -10 9 0 16 5 16 10 0 6 -4 10 -9 10 -6 0
-13 -4 -16 -10z"/>
<path d="M7507 6583 c-4 -3 -7 -11 -7 -17 0 -6 5 -5 12 2 6 6 9 14 7 17 -3 3
-9 2 -12 -2z"/>
<path d="M7917 6577 c-3 -8 -1 -20 4 -28 6 -10 9 -7 9 14 0 29 -5 35 -13 14z"/>
<path d="M7542 6567 c-9 -11 -10 -17 -2 -22 15 -9 23 -1 18 21 -3 15 -4 16
-16 1z"/>
<path d="M5240 6560 c0 -5 10 -10 23 -10 18 0 19 2 7 10 -19 13 -30 13 -30 0z"/>
<path d="M4758 6553 c7 -3 16 -2 19 1 4 3 -2 6 -13 5 -11 0 -14 -3 -6 -6z"/>
<path d="M3460 6530 c0 -5 5 -10 10 -10 6 0 10 5 10 10 0 6 -4 10 -10 10 -5 0
-10 -4 -10 -10z"/>
<path d="M4378 6533 c7 -3 16 -2 19 1 4 3 -2 6 -13 5 -11 0 -14 -3 -6 -6z"/>
<path d="M5309 6519 c-20 -20 -20 -37 0 -24 13 7 34 45 26 45 -3 0 -14 -9 -26
-21z"/>
<path d="M7890 6524 c0 -8 5 -12 10 -9 6 3 10 10 10 16 0 5 -4 9 -10 9 -5 0
-10 -7 -10 -16z"/>
<path d="M3274 6517 c3 -11 0 -20 -9 -23 -15 -6 -11 -24 4 -24 14 0 20 36 9
51 -8 11 -8 10 -4 -4z"/>
<path d="M4205 6516 c-17 -12 -18 -17 -7 -37 13 -28 12 -159 -2 -159 -6 0 -5
-5 1 -11 16 -16 47 -3 39 17 -3 8 -2 13 2 10 4 -2 16 2 27 10 17 13 18 16 5
24 -8 5 -11 12 -8 15 12 12 28 -5 28 -29 0 -15 -9 -27 -25 -34 -14 -6 -25 -16
-25 -22 0 -6 9 -5 25 2 14 6 25 15 25 19 0 4 8 15 17 25 13 13 14 19 5 22 -6
2 -12 8 -12 14 0 6 7 8 15 5 23 -9 28 11 5 23 -11 6 -18 15 -15 19 3 5 -2 12
-11 15 -8 3 -12 11 -9 17 5 7 11 7 17 1 6 -6 19 -7 32 -2 11 5 30 11 40 14 18
6 18 8 -4 31 -20 21 -32 25 -85 25 -37 0 -69 -6 -80 -14z"/>
<path d="M5245 6520 c-3 -5 1 -10 9 -10 9 0 16 5 16 10 0 6 -4 10 -9 10 -6 0
-13 -4 -16 -10z"/>
<path d="M7923 6505 c-9 -20 -8 -25 3 -25 8 0 14 10 14 25 0 31 -2 31 -17 0z"/>
<path d="M5436 6499 c-26 -21 -34 -39 -16 -39 9 0 60 47 60 55 0 11 -19 4 -44
-16z"/>
<path d="M3818 6503 c7 -3 16 -2 19 1 4 3 -2 6 -13 5 -11 0 -14 -3 -6 -6z"/>
<path d="M7530 6494 c0 -14 3 -14 15 -4 8 7 15 14 15 16 0 2 -7 4 -15 4 -8 0
-15 -7 -15 -16z"/>
<path d="M5167 6486 c-4 -10 -1 -13 9 -9 15 6 19 23 5 23 -5 0 -11 -7 -14 -14z"/>
<path d="M3550 6480 c0 -5 5 -10 11 -10 5 0 7 5 4 10 -3 6 -8 10 -11 10 -2 0
-4 -4 -4 -10z"/>
<path d="M5225 6470 c-3 -5 -2 -10 4 -10 5 0 13 5 16 10 3 6 2 10 -4 10 -5 0
-13 -4 -16 -10z"/>
<path d="M5280 6455 c-19 -23 -9 -25 25 -4 26 17 27 19 9 19 -12 0 -27 -7 -34
-15z"/>
<path d="M7885 6460 c-3 -5 -2 -10 4 -10 5 0 13 5 16 10 3 6 2 10 -4 10 -5 0
-13 -4 -16 -10z"/>
<path d="M3190 6450 c0 -12 28 -25 36 -17 3 3 -4 10 -15 17 -15 7 -21 7 -21 0z"/>
<path d="M7916 6431 c-15 -27 -14 -29 4 -24 13 3 20 14 20 29 0 32 -6 30 -24
-5z"/>
<path d="M4320 6433 c0 -11 5 -11 20 -3 11 6 20 12 20 13 0 2 -9 3 -20 3 -11
0 -20 -6 -20 -13z"/>
<path d="M7515 6430 c-3 -5 -1 -10 4 -10 6 0 11 5 11 10 0 6 -2 10 -4 10 -3 0
-8 -4 -11 -10z"/>
<path d="M3510 6419 c0 -5 5 -7 10 -4 6 3 10 8 10 11 0 2 -4 4 -10 4 -5 0 -10
-5 -10 -11z"/>
<path d="M3640 6420 c0 -5 5 -10 10 -10 6 0 10 5 10 10 0 6 -4 10 -10 10 -5 0
-10 -4 -10 -10z"/>
<path d="M4610 6410 c-13 -8 -13 -10 2 -10 9 0 20 5 23 10 8 13 -5 13 -25 0z"/>
<path d="M3702 6391 c4 -13 18 -16 19 -4 0 4 -5 9 -11 12 -7 2 -11 -2 -8 -8z"/>
<path d="M5140 6394 c0 -10 33 -33 48 -34 18 0 15 17 -5 24 -10 3 -24 9 -30
12 -7 3 -13 2 -13 -2z"/>
<path d="M7921 6376 c-8 -9 -11 -19 -7 -23 9 -9 29 13 24 27 -2 8 -8 7 -17 -4z"/>
<path d="M3566 6371 c-4 -5 -2 -12 3 -15 5 -4 12 -2 15 3 4 5 2 12 -3 15 -5 4
-12 2 -15 -3z"/>
<path d="M5127 6343 c-13 -13 -7 -32 8 -27 8 4 15 12 15 20 0 15 -12 19 -23 7z"/>
<path d="M7910 6311 c-12 -24 -13 -34 -1 -27 9 6 22 46 15 46 -2 0 -8 -9 -14
-19z"/>
<path d="M7455 6290 c-3 -5 -1 -10 4 -10 6 0 11 5 11 10 0 6 -2 10 -4 10 -3 0
-8 -4 -11 -10z"/>
<path d="M4190 6270 c0 -5 9 -10 19 -10 11 0 23 5 26 10 4 6 -5 10 -19 10 -14
0 -26 -4 -26 -10z"/>
<path d="M7882 6235 c-7 -14 -19 -28 -27 -31 -8 -4 -15 -11 -15 -16 0 -7 5 -6
13 1 8 6 16 8 20 5 5 -5 37 47 37 61 0 15 -18 2 -28 -20z"/>
<path d="M7265 6240 c-3 -5 -1 -10 4 -10 6 0 11 5 11 10 0 6 -2 10 -4 10 -3 0
-8 -4 -11 -10z"/>
<path d="M7330 6240 c-8 -5 -10 -10 -5 -10 6 0 17 5 25 10 8 5 11 10 5 10 -5
0 -17 -5 -25 -10z"/>
<path d="M4190 6229 c0 -5 9 -9 20 -9 11 0 20 2 20 4 0 2 -9 6 -20 9 -11 3
-20 1 -20 -4z"/>
<path d="M7377 6233 c-10 -9 -9 -23 2 -23 5 0 11 7 15 15 5 15 -5 20 -17 8z"/>
<path d="M7140 6210 c0 -5 4 -10 9 -10 6 0 13 5 16 10 3 6 -1 10 -9 10 -9 0
-16 -4 -16 -10z"/>
<path d="M7419 6201 c-13 -11 -21 -23 -17 -27 5 -4 17 3 28 16 31 36 26 41
-11 11z"/>
<path d="M7191 6194 c0 -11 3 -14 6 -6 3 7 2 16 -1 19 -3 4 -6 -2 -5 -13z"/>
<path d="M6760 6160 c0 -5 5 -10 11 -10 5 0 7 5 4 10 -3 6 -8 10 -11 10 -2 0
-4 -4 -4 -10z"/>
<path d="M7105 6160 c-7 -12 2 -12 30 0 19 8 19 9 -2 9 -12 1 -25 -3 -28 -9z"/>
<path d="M7160 6146 c0 -9 5 -16 10 -16 6 0 10 4 10 9 0 6 -4 13 -10 16 -5 3
-10 -1 -10 -9z"/>
<path d="M7393 6153 c-7 -2 -13 -9 -13 -15 0 -6 -9 -19 -20 -28 -12 -10 -17
-21 -12 -24 10 -6 46 30 55 57 4 9 5 17 4 16 -1 0 -8 -3 -14 -6z"/>
<path d="M7846 6144 c-17 -17 -21 -34 -8 -34 5 0 14 11 20 25 13 29 10 31 -12
9z"/>
<path d="M7260 6140 c0 -5 4 -10 9 -10 6 0 13 5 16 10 3 6 -1 10 -9 10 -9 0
-16 -4 -16 -10z"/>
<path d="M6490 6120 c-12 -8 -11 -10 8 -10 12 0 22 5 22 10 0 13 -11 13 -30 0z"/>
<path d="M6610 6120 c0 -5 10 -10 23 -10 18 0 19 2 7 10 -19 13 -30 13 -30 0z"/>
<path d="M6720 6110 c0 -5 4 -10 9 -10 6 0 13 5 16 10 3 6 -1 10 -9 10 -9 0
-16 -4 -16 -10z"/>
<path d="M7007 6114 c-13 -13 -7 -24 14 -24 11 0 19 5 17 12 -5 14 -22 21 -31
12z"/>
<path d="M7179 6104 c-13 -16 -12 -17 10 -11 14 3 31 1 38 -5 10 -8 17 -8 25
0 15 15 11 18 -28 26 -23 5 -34 2 -45 -10z"/>
<path d="M7297 6114 c-13 -13 -7 -24 14 -24 11 0 19 5 17 12 -5 14 -22 21 -31
12z"/>
<path d="M6561 6081 c13 -11 28 -17 32 -14 5 3 -4 11 -18 19 -37 19 -42 18
-14 -5z"/>
<path d="M6651 6086 c-10 -12 -8 -13 8 -9 12 3 18 9 15 14 -7 12 -10 11 -23
-5z"/>
<path d="M6930 6085 c0 -8 5 -15 10 -15 6 0 10 7 10 15 0 8 -4 15 -10 15 -5 0
-10 -7 -10 -15z"/>
<path d="M6856 6055 c-24 -30 -25 -35 -9 -35 11 0 24 13 32 31 19 43 8 45 -23
4z"/>
<path d="M7806 6058 c-19 -36 -13 -51 9 -22 13 18 21 54 11 54 -3 0 -12 -14
-20 -32z"/>
<path d="M6460 6070 c0 -5 10 -10 23 -10 18 0 19 2 7 10 -19 13 -30 13 -30 0z"/>
<path d="M7145 6069 c-9 -13 -7 -15 32 -22 40 -8 53 10 18 23 -33 13 -42 13
-50 -1z"/>
<path d="M6790 6059 c0 -5 5 -7 10 -4 6 3 10 8 10 11 0 2 -4 4 -10 4 -5 0 -10
-5 -10 -11z"/>
<path d="M7265 6059 c-4 -6 -5 -12 -2 -15 7 -7 37 7 37 17 0 13 -27 11 -35 -2z"/>
<path d="M6615 6049 c-4 -6 -5 -12 -2 -15 2 -3 7 2 10 11 7 17 1 20 -8 4z"/>
<path d="M6670 6045 c-14 -8 -19 -14 -10 -14 8 0 24 6 34 14 25 19 9 19 -24 0z"/>
<path d="M6720 6030 c0 -5 5 -10 11 -10 5 0 7 5 4 10 -3 6 -8 10 -11 10 -2 0
-4 -4 -4 -10z"/>
<path d="M6466 6009 c-11 -11 -15 -19 -9 -19 12 0 38 28 32 34 -2 2 -13 -5
-23 -15z"/>
<path d="M6535 6010 c-3 -5 1 -10 9 -10 9 0 16 5 16 10 0 6 -4 10 -9 10 -6 0
-13 -4 -16 -10z"/>
<path d="M7333 6003 c-3 -10 -15 -26 -25 -37 -11 -10 -16 -21 -13 -24 7 -7 64
56 65 71 0 14 -21 7 -27 -10z"/>
<path d="M2450 6000 c-9 -6 -10 -10 -3 -10 6 0 15 5 18 10 8 12 4 12 -15 0z"/>
<path d="M6768 6003 c7 -3 16 -2 19 1 4 3 -2 6 -13 5 -11 0 -14 -3 -6 -6z"/>
<path d="M6660 5996 c0 -9 30 -14 35 -6 4 6 -3 10 -14 10 -12 0 -21 -2 -21 -4z"/>
<path d="M6796 5984 c-4 -9 -4 -19 -1 -22 7 -8 35 19 29 29 -8 14 -21 11 -28
-7z"/>
<path d="M7703 5988 c-19 -25 -24 -38 -14 -38 11 0 35 39 28 46 -2 3 -9 -1
-14 -8z"/>
<path d="M7752 5984 c-12 -8 -22 -19 -22 -25 0 -15 26 -10 43 9 30 33 17 43
-21 16z"/>
<path d="M6547 5961 c-31 -33 -33 -41 -12 -41 8 0 15 7 15 15 0 8 9 20 20 27
11 7 20 16 20 20 0 15 -16 8 -43 -21z"/>
<path d="M6490 5970 c-8 -5 -11 -12 -8 -16 10 -9 38 3 38 16 0 12 -10 13 -30
0z"/>
<path d="M6600 5960 c0 -5 7 -10 15 -10 8 0 15 5 15 10 0 6 -7 10 -15 10 -8 0
-15 -4 -15 -10z"/>
<path d="M6388 5953 c-9 -2 -19 -10 -22 -18 -4 -11 1 -12 25 -3 16 5 26 14 23
19 -3 5 -6 8 -7 8 -1 -1 -9 -3 -19 -6z"/>
<path d="M7410 5950 c0 -5 7 -7 15 -4 8 4 15 8 15 10 0 2 -7 4 -15 4 -8 0 -15
-4 -15 -10z"/>
<path d="M6640 5945 c0 -3 9 -14 21 -26 19 -19 22 -20 37 -5 15 15 14 16 -11
16 -16 0 -26 4 -22 10 3 6 -1 10 -9 10 -9 0 -16 -2 -16 -5z"/>
<path d="M7511 5941 c-8 -5 -9 -11 -3 -15 5 -3 12 1 16 9 6 17 6 18 -13 6z"/>
<path d="M6270 5930 c0 -5 7 -10 16 -10 8 0 12 5 9 10 -3 6 -10 10 -16 10 -5
0 -9 -4 -9 -10z"/>
<path d="M6570 5930 c-8 -5 -11 -12 -7 -16 4 -4 15 0 24 9 18 18 8 23 -17 7z"/>
<path d="M7550 5925 c-16 -19 0 -19 26 0 16 12 16 14 3 15 -9 0 -22 -7 -29
-15z"/>
<path d="M7325 5920 c-3 -5 -1 -10 4 -10 6 0 11 5 11 10 0 6 -2 10 -4 10 -3 0
-8 -4 -11 -10z"/>
<path d="M6399 5904 c-7 -9 -22 -14 -36 -11 -13 2 -23 0 -23 -4 0 -5 5 -9 11
-9 6 0 18 -9 27 -20 19 -22 55 -31 60 -15 2 6 -5 11 -15 13 -42 7 -44 12 -16
37 15 13 23 25 17 25 -6 0 -17 -7 -25 -16z"/>
<path d="M6453 5913 c-20 -7 -15 -23 6 -23 11 0 23 -4 26 -10 10 -16 35 -12
35 6 0 11 -6 14 -20 9 -14 -5 -20 -2 -20 9 0 16 -6 18 -27 9z"/>
<path d="M7600 5910 c0 -5 7 -7 15 -4 8 4 15 8 15 10 0 2 -7 4 -15 4 -8 0 -15
-4 -15 -10z"/>
<path d="M7480 5895 c-8 -9 -8 -15 -2 -15 12 0 26 19 19 26 -2 2 -10 -2 -17
-11z"/>
<path d="M7640 5899 c0 -5 5 -7 10 -4 6 3 10 8 10 11 0 2 -4 4 -10 4 -5 0 -10
-5 -10 -11z"/>
<path d="M7420 5890 c0 -5 5 -10 10 -10 6 0 10 5 10 10 0 6 -4 10 -10 10 -5 0
-10 -4 -10 -10z"/>
<path d="M6545 5877 c-34 -41 -65 -87 -65 -96 0 -19 38 11 44 34 3 11 17 32
31 48 15 15 20 27 13 27 -7 -1 -17 -6 -23 -13z"/>
<path d="M7519 5873 c-13 -15 -12 -15 9 -4 23 12 28 21 13 21 -5 0 -15 -7 -22
-17z"/>
<path d="M7444 5855 c-17 -13 -17 -14 -2 -15 9 0 20 5 23 11 11 17 0 20 -21 4z"/>
<path d="M7570 5860 c0 -5 4 -10 9 -10 6 0 13 5 16 10 3 6 -1 10 -9 10 -9 0
-16 -4 -16 -10z"/>
<path d="M2485 5840 c3 -5 14 -10 23 -10 15 0 15 2 2 10 -20 13 -33 13 -25 0z"/>
<path d="M6467 5836 c-20 -16 -23 -38 -3 -30 13 5 30 33 24 40 -2 1 -11 -3
-21 -10z"/>
<path d="M7300 5825 c0 -17 2 -18 24 -9 23 9 20 24 -4 24 -11 0 -20 -7 -20
-15z"/>
<path d="M6295 5820 c-9 -14 -7 -16 32 -24 19 -5 34 -3 38 4 9 14 7 16 -32 24
-19 5 -34 3 -38 -4z"/>
<path d="M7417 5823 c-12 -11 -8 -23 8 -23 8 0 15 7 15 15 0 16 -12 20 -23 8z"/>
<path d="M6234 5713 c-12 -2 -30 -14 -40 -25 -18 -21 -18 -21 -1 -15 10 4 29
7 42 7 14 0 25 7 28 20 3 11 2 19 -1 19 -4 -1 -17 -4 -28 -6z"/>
<path d="M3801 5574 c0 -11 3 -14 6 -6 3 7 2 16 -1 19 -3 4 -6 -2 -5 -13z"/>
<path d="M6200 5570 c0 -5 5 -10 10 -10 6 0 10 5 10 10 0 6 -4 10 -10 10 -5 0
-10 -4 -10 -10z"/>
<path d="M2587 5153 c-101 -109 -199 -213 -216 -232 -17 -18 -31 -36 -31 -39
0 -7 116 113 279 287 58 63 113 121 121 130 24 24 43 51 37 51 -2 0 -88 -89
-190 -197z"/>
<path d="M8075 5323 c-42 -9 -76 -26 -86 -44 -5 -10 -22 -109 -39 -221 -16
-112 -42 -284 -59 -383 -16 -99 -33 -206 -36 -237 -5 -47 -9 -56 -23 -51 -11
3 -13 2 -5 -4 6 -4 14 -20 18 -35 13 -51 38 -57 222 -60 175 -2 205 2 238 32
11 10 38 20 60 22 28 2 41 8 43 21 3 16 -12 17 -217 17 -185 0 -221 2 -221 14
0 8 13 99 29 203 16 103 33 208 36 233 4 25 15 95 25 155 10 61 24 155 30 210
6 55 13 108 16 118 5 17 4 18 -31 10z"/>
<path d="M498 5305 c-31 -17 -40 -45 -63 -184 -8 -53 -31 -197 -50 -321 -20
-124 -42 -266 -50 -316 -20 -120 -19 -136 6 -163 20 -22 25 -22 202 -19 l182
3 70 35 70 35 -212 3 -212 2 4 28 c3 15 21 133 40 262 30 199 55 355 69 445
33 194 32 205 -6 205 -13 -1 -35 -7 -50 -15z"/>
<path d="M1207 5302 c-32 -20 -40 -44 -62 -197 -15 -102 -31 -204 -86 -540
-30 -184 -30 -215 -6 -242 20 -22 27 -23 198 -23 183 0 214 5 249 40 11 11 33
20 49 20 17 0 33 5 36 10 4 7 -70 10 -215 10 l-220 0 4 23 c5 24 16 93 41 257
9 58 22 146 30 195 8 50 21 137 30 195 9 58 20 127 26 153 5 26 9 64 9 82 0
32 -3 35 -27 35 -16 0 -41 -8 -56 -18z"/>
<path d="M4670 5307 c-14 -7 -31 -24 -38 -39 -10 -22 -67 -365 -127 -768 -27
-177 -22 -195 58 -195 43 0 59 5 86 28 19 16 44 27 62 27 16 0 29 5 29 10 0 6
-28 10 -65 10 -48 0 -65 4 -65 13 0 18 18 134 76 497 26 162 49 325 51 363 5
65 5 67 -18 67 -13 0 -35 -6 -49 -13z"/>
<path d="M4416 5303 c-10 -3 -78 -63 -150 -133 -72 -71 -157 -153 -189 -182
-41 -39 -56 -59 -51 -71 3 -9 11 -17 16 -17 13 0 396 368 409 392 10 19 4 21
-35 11z"/>
<path d="M7777 5282 c-12 -13 -21 -48 -27 -103 -5 -45 -15 -117 -21 -159 -13
-83 -6 -108 42 -159 l23 -25 28 170 c15 93 29 189 31 214 2 27 8 44 15 43 7
-2 12 3 12 10 0 7 -8 13 -17 14 -10 1 -29 5 -43 8 -18 5 -31 1 -43 -13z"/>
<path d="M9206 5278 c-8 -13 -24 -84 -35 -158 -12 -74 -23 -146 -26 -160 -4
-20 3 -36 31 -68 20 -24 38 -41 41 -39 7 8 63 350 63 388 0 58 -45 81 -74 37z"/>
<path d="M8608 5262 c-9 -15 -19 -49 -23 -77 -3 -27 -13 -88 -20 -135 -20
-119 -61 -379 -75 -480 -7 -47 -16 -107 -20 -134 -4 -26 -5 -60 -1 -75 13 -48
75 -33 85 22 3 12 18 106 35 209 17 103 37 201 46 218 24 47 78 383 67 423 -8
29 -25 45 -54 51 -19 3 -29 -2 -40 -22z"/>
<path d="M774 5262 c-8 -7 -14 -27 -14 -43 0 -22 6 -32 24 -39 42 -16 50 -64
31 -186 -9 -59 -19 -116 -21 -128 -2 -11 -7 -41 -10 -66 -2 -25 -11 -81 -19
-125 -8 -44 -17 -98 -21 -120 -3 -22 -10 -45 -15 -52 -15 -17 7 -26 46 -19 56
11 90 60 104 152 7 43 21 138 32 209 11 72 27 168 35 215 20 121 19 152 -11
184 -13 14 -30 26 -37 27 -76 5 -113 3 -124 -9z"/>
<path d="M1494 5265 c-17 -13 -31 -55 -26 -79 3 -16 10 -18 65 -11 43 4 69 14
90 31 16 13 41 24 56 24 28 0 51 16 51 35 0 13 -218 14 -236 0z"/>
<path d="M4957 5268 c2 -5 -2 -8 -11 -8 -9 0 -18 -18 -25 -51 -10 -45 -9 -54
6 -72 14 -14 18 -36 18 -91 0 -39 -4 -81 -8 -93 -8 -22 -6 -23 39 -23 42 0 51
4 84 39 31 32 38 49 48 109 22 133 12 171 -51 191 -36 12 -108 11 -100 -1z"/>
<path d="M8318 5270 c-25 -6 -45 -57 -34 -86 10 -26 109 -12 148 21 21 17 42
25 69 25 29 0 41 5 46 18 4 9 10 19 14 22 10 7 -214 6 -243 0z"/>
<path d="M6179 5238 c-16 -14 -29 -29 -29 -33 0 -4 12 4 26 19 38 37 48 32 19
-10 -13 -20 -27 -51 -31 -69 -3 -20 -13 -35 -24 -38 -14 -3 -19 -19 -25 -66
-13 -109 -12 -125 8 -159 17 -28 19 -45 14 -105 -9 -108 -18 -139 -38 -144
-23 -6 -15 -23 12 -23 28 0 24 -14 -13 -45 -36 -30 -32 -50 14 -73 46 -22 118
20 137 82 15 45 93 543 94 598 1 67 -29 99 -91 95 -33 -1 -53 -9 -73 -29z"/>
<path d="M2555 5069 c-4 -6 -5 -12 -2 -15 2 -3 7 2 10 11 7 17 1 20 -8 4z"/>
<path d="M2520 5035 c-7 -9 -11 -18 -8 -20 3 -3 11 1 18 10 7 9 11 18 8 20 -3
3 -11 -1 -18 -10z"/>
<path d="M3680 4976 c0 -3 -7 -39 -15 -82 l-15 -78 36 -55 c20 -30 41 -59 46
-65 4 -6 25 -32 45 -59 42 -55 70 -66 111 -42 49 30 54 47 25 91 -69 103 -205
283 -218 288 -8 3 -15 4 -15 2z"/>
<path d="M4286 4913 c-45 -44 -63 -69 -55 -74 8 -5 10 -20 5 -45 -23 -130 -66
-411 -66 -435 0 -10 10 -29 21 -40 30 -30 105 -23 149 14 18 16 44 27 60 27
16 0 32 5 35 10 4 6 -22 10 -70 10 l-76 0 5 33 c3 17 10 59 16 92 5 33 12 78
16 100 3 22 12 81 20 130 39 235 40 245 21 245 -8 0 -44 -30 -81 -67z"/>
<path d="M8746 4888 c-20 -129 -22 -118 44 -199 34 -41 79 -94 100 -119 54
-64 100 -120 135 -164 17 -21 42 -44 57 -52 25 -13 30 -12 46 4 11 11 22 36
26 57 6 30 3 43 -18 74 -57 81 -353 426 -368 429 -12 2 -18 -6 -22 -30z"/>
<path d="M2356 4855 c4 -8 8 -15 10 -15 2 0 4 7 4 15 0 8 -4 15 -10 15 -5 0
-7 -7 -4 -15z"/>
<path d="M5110 4834 c-24 -11 -63 -14 -133 -13 -55 1 -102 -2 -108 -8 -5 -5
-12 -26 -16 -46 l-6 -37 52 0 c38 0 62 7 91 25 22 14 50 25 63 25 13 0 41 16
63 35 44 39 43 40 -6 19z"/>
<path d="M1417 4823 c-13 -23 -28 -84 -22 -93 4 -7 19 -2 41 15 19 14 53 29
77 33 31 6 43 12 45 28 3 18 -4 20 -67 22 -38 2 -71 0 -74 -5z"/>
<path d="M8230 4810 c-23 -23 -28 -80 -7 -80 8 0 22 9 31 19 10 11 32 23 50
26 57 12 66 16 66 33 0 14 -12 18 -60 20 -49 2 -63 -1 -80 -18z"/>
<path d="M7225 4390 c-3 -5 -1 -10 4 -10 6 0 11 5 11 10 0 6 -2 10 -4 10 -3 0
-8 -4 -11 -10z"/>
<path d="M8600 4380 c-13 -8 -12 -10 3 -10 9 0 17 5 17 10 0 12 -1 12 -20 0z"/>
<path d="M5715 4280 c3 -5 10 -10 16 -10 5 0 9 5 9 10 0 6 -7 10 -16 10 -8 0
-12 -4 -9 -10z"/>
<path d="M5810 4250 c0 -5 5 -10 10 -10 6 0 10 5 10 10 0 6 -4 10 -10 10 -5 0
-10 -4 -10 -10z"/>
<path d="M6435 3969 c-55 -10 -115 -21 -132 -24 -43 -8 -42 -17 5 -38 34 -15
42 -15 96 -1 32 8 82 26 111 40 30 13 64 24 77 25 23 1 23 1 -2 9 -34 11 -40
10 -155 -11z"/>
<path d="M5875 3970 c-3 -5 1 -10 10 -10 9 0 13 5 10 10 -3 6 -8 10 -10 10 -2
0 -7 -4 -10 -10z"/>
<path d="M3342 3733 c-39 -109 -83 -238 -97 -287 -14 -49 -30 -95 -36 -103 -8
-9 -8 -17 0 -27 13 -15 -4 -66 -22 -66 -6 0 -2 -9 7 -19 10 -11 13 -21 7 -25
-5 -4 -8 -21 -5 -38 4 -34 -12 -53 -32 -37 -8 7 -14 6 -19 -1 -6 -10 0 -12 40
-14 16 -1 20 -8 19 -38 -1 -32 2 -38 20 -38 16 0 26 12 40 48 147 371 299 685
358 738 l38 34 -25 10 c-13 5 -63 19 -110 30 -46 11 -90 23 -98 25 -9 4 -34
-52 -85 -192z"/>
<path d="M7450 3716 c0 -2 7 -19 15 -37 14 -34 20 -23 9 19 -5 18 -24 33 -24
18z"/>
<path d="M7481 3624 c0 -11 3 -14 6 -6 3 7 2 16 -1 19 -3 4 -6 -2 -5 -13z"/>
<path d="M7506 3561 c-4 -7 -5 -15 -2 -18 9 -9 19 4 14 18 -4 11 -6 11 -12 0z"/>
<path d="M7522 3453 c-1 -28 -7 -55 -13 -58 -6 -4 -8 -13 -5 -21 10 -26 -67
-147 -139 -219 -88 -88 -152 -143 -175 -150 -10 -3 -21 -13 -24 -22 -6 -14 -8
-14 -25 1 -17 16 -18 15 -14 -7 4 -20 -2 -27 -44 -47 -26 -13 -54 -23 -60 -21
-7 1 -13 -5 -13 -13 0 -19 -36 -40 -45 -26 -3 6 -16 -1 -29 -15 -13 -14 -29
-25 -36 -25 -8 0 -22 -7 -32 -17 -17 -15 -19 -15 -36 0 -25 23 -32 21 -29 -5
1 -18 -4 -24 -23 -26 -13 -2 -30 -11 -36 -20 -11 -15 -14 -15 -33 2 -21 19
-21 19 -21 -2 0 -20 -19 -28 -52 -23 -5 0 -8 -3 -8 -8 0 -5 -39 -8 -86 -7 -75
1 -88 4 -104 23 -11 14 -28 21 -47 21 -35 -1 -56 9 -48 23 4 5 2 9 -4 9 -5 0
-15 -8 -21 -17 -9 -16 -10 -15 -5 5 7 25 -7 29 -25 7 -7 -8 -17 -15 -24 -15
-6 0 2 12 18 27 19 17 31 23 34 15 2 -7 12 -12 22 -12 15 0 9 10 -25 46 -25
25 -45 52 -45 60 0 23 -17 16 -22 -10 -4 -17 -1 -23 9 -19 18 7 16 -12 -3 -32
-23 -23 -8 -32 16 -10 16 14 20 15 20 4 0 -19 -38 -51 -42 -37 -3 7 -14 5 -31
-7 -33 -21 -35 -10 -5 22 18 19 19 23 5 23 -9 0 -19 -5 -23 -11 -3 -6 -17 -8
-31 -4 -17 4 -32 0 -44 -11 -25 -22 -37 -10 -16 14 10 10 14 22 10 25 -3 4
-18 -6 -32 -23 -18 -21 -38 -32 -65 -35 -21 -2 -44 -9 -51 -15 -20 -16 -25 0
-8 26 13 21 13 24 1 24 -8 0 -23 -9 -33 -20 -19 -21 -43 -17 -25 5 9 11 6 12
-12 7 -13 -3 -31 -16 -42 -29 -10 -13 -21 -22 -24 -19 -2 3 1 12 7 20 15 18 5
41 -12 28 -7 -6 -32 -10 -57 -11 -25 0 -74 -3 -108 -6 -38 -3 -72 0 -84 6 -19
10 -20 9 -15 -11 3 -14 -1 -28 -14 -41 -20 -20 -39 -25 -39 -10 0 6 5 13 10
16 6 3 10 13 10 21 0 12 -4 12 -20 4 -11 -6 -20 -17 -20 -25 0 -14 -37 -31
-46 -22 -3 3 5 14 17 26 28 26 17 39 -18 20 -21 -11 -27 -11 -30 -1 -3 6 -9
10 -14 7 -5 -3 -25 -3 -45 1 -24 4 -39 14 -47 31 -10 22 -8 28 13 45 15 12 37
19 59 18 20 -1 75 -2 122 -1 70 1 90 5 109 21 13 11 20 26 16 35 -7 19 3 19
28 0 25 -19 56 -19 84 1 28 19 29 60 2 74 -16 9 -20 8 -20 -4 0 -9 -13 -22
-29 -31 -28 -14 -31 -14 -57 10 -31 29 -44 32 -44 9 0 -8 -4 -13 -9 -10 -5 3
-14 -1 -21 -9 -15 -18 -51 -20 -67 -4 -9 9 -20 5 -43 -15 -36 -30 -50 -33 -50
-10 0 11 -5 14 -16 10 -11 -4 -18 1 -21 14 -7 26 -11 25 -45 -7 -22 -21 -32
-25 -45 -17 -33 21 -39 42 -20 73 11 19 14 32 7 36 -6 4 -8 11 -4 16 3 6 -3
20 -14 32 -11 12 -23 33 -27 47 -10 33 -26 45 -55 43 -14 0 -33 -1 -42 -2 -54
-3 -60 -75 -12 -138 23 -30 26 -42 22 -84 -6 -60 15 -94 65 -104 56 -13 62
-24 27 -60 -26 -27 -30 -37 -25 -66 12 -66 107 -184 178 -221 91 -46 382 -45
597 2 52 12 182 36 288 55 298 53 349 67 537 150 89 39 219 108 290 154 22 14
45 28 52 31 31 13 179 139 246 209 54 56 86 101 116 162 38 76 42 91 38 144
l-3 60 -2 -52z m-1358 -652 c6 -9 -35 -24 -43 -15 -6 5 18 24 31 24 4 0 9 -4
12 -9z m-73 -15 c-1 -3 -4 -6 -8 -7 -5 0 -14 -5 -20 -11 -9 -7 -13 -7 -13 0 0
6 8 15 17 21 18 9 25 8 24 -3z m-71 -21 c-7 -8 -20 -15 -29 -15 -13 1 -13 3 3
15 26 19 42 19 26 0z m-617 -2 c-7 -2 -21 -2 -30 0 -10 3 -4 5 12 5 17 0 24
-2 18 -5z m647 -28 c0 -2 -10 -10 -22 -16 -21 -11 -22 -11 -9 4 13 16 31 23
31 12z m-650 -15 c0 -5 -5 -10 -11 -10 -5 0 -7 5 -4 10 3 6 8 10 11 10 2 0 4
-4 4 -10z"/>
<path d="M2350 3310 c0 -5 5 -10 10 -10 6 0 10 5 10 10 0 6 -4 10 -10 10 -5 0
-10 -4 -10 -10z"/>
<path d="M2412 3309 c2 -7 10 -15 17 -17 8 -3 12 1 9 9 -2 7 -10 15 -17 17 -8
3 -12 -1 -9 -9z"/>
<path d="M2906 3301 c-4 -5 -2 -12 3 -15 5 -4 12 -2 15 3 4 5 2 12 -3 15 -5 4
-12 2 -15 -3z"/>
<path d="M5876 3295 c-11 -8 -15 -15 -9 -15 19 0 43 12 43 21 0 13 -12 11 -34
-6z"/>
<path d="M2530 3290 c0 -5 5 -10 11 -10 5 0 7 5 4 10 -3 6 -8 10 -11 10 -2 0
-4 -4 -4 -10z"/>
<path d="M5750 3288 c0 -11 12 -10 30 2 12 7 10 9 -8 7 -12 0 -22 -5 -22 -9z"/>
<path d="M2995 3280 c3 -5 11 -10 16 -10 6 0 7 5 4 10 -3 6 -11 10 -16 10 -6
0 -7 -4 -4 -10z"/>
<path d="M6080 3277 c0 -8 -11 -20 -25 -27 -13 -7 -22 -17 -19 -22 3 -4 15 -2
26 7 16 11 25 12 35 3 14 -11 16 -5 7 30 -7 24 -24 30 -24 9z"/>
<path d="M5480 3260 c-9 -16 -8 -20 7 -20 13 0 14 -3 5 -12 -19 -19 -14 -45 9
-51 18 -5 19 -9 9 -27 -14 -27 -36 -12 -45 31 -4 18 -13 29 -23 29 -16 1 -15
2 1 14 9 7 17 18 17 24 0 14 -24 22 -40 12 -12 -8 -11 -24 5 -62 4 -11 3 -18
-3 -18 -6 0 -14 9 -17 20 -3 11 -11 20 -16 20 -12 0 -12 -47 1 -55 16 -10 11
-42 -7 -50 -16 -6 -15 -8 6 -19 23 -13 23 -14 5 -25 -18 -11 -18 -12 1 -9 14
2 20 12 22 32 3 38 11 44 21 17 4 -12 12 -22 17 -20 6 1 14 -8 20 -20 12 -26
30 -27 57 -2 13 13 19 27 15 40 -3 12 -1 21 5 21 5 0 3 7 -6 15 -14 15 -27 58
-34 123 -3 19 -20 14 -32 -8z m30 -164 c0 -3 -4 -8 -10 -11 -5 -3 -10 -1 -10
4 0 6 5 11 10 11 6 0 10 -2 10 -4z"/>
<path d="M5560 3270 c-12 -7 -12 -12 -2 -22 10 -10 15 -10 22 2 19 29 9 39
-20 20z"/>
<path d="M5248 3259 c-26 -15 -22 -27 7 -21 26 5 34 -11 13 -25 -7 -4 -22 -18
-32 -31 -17 -19 -17 -22 -3 -16 9 3 17 11 17 16 0 5 6 8 12 6 14 -5 15 -33 3
-62 -5 -11 -3 -21 5 -26 7 -4 10 -14 7 -22 -4 -11 1 -14 18 -11 16 4 28 -2 39
-19 13 -19 18 -20 25 -9 12 19 1 82 -16 100 -8 7 -12 19 -10 26 3 6 -3 17 -14
23 -10 7 -22 26 -27 44 -9 36 -19 42 -44 27z"/>
<path d="M5355 3260 c-3 -5 1 -10 9 -10 9 0 16 5 16 10 0 6 -4 10 -9 10 -6 0
-13 -4 -16 -10z"/>
<path d="M5610 3242 c0 -9 -9 -23 -20 -30 -12 -7 -20 -23 -20 -38 0 -27 29
-84 42 -84 4 0 8 -7 8 -15 0 -16 27 -20 45 -7 9 6 33 71 39 105 2 10 66 -80
66 -93 0 -12 17 -13 24 -1 3 5 -1 14 -9 21 -8 7 -15 20 -15 30 0 10 -7 23 -15
30 -8 7 -15 18 -15 25 0 7 -6 18 -14 24 -11 10 -17 8 -25 -6 -6 -10 -11 -12
-11 -5 0 6 -5 12 -10 12 -6 0 -21 11 -34 25 -28 30 -36 31 -36 7z m26 -57 c2
-18 -3 -25 -17 -25 -22 0 -23 4 -9 31 15 26 25 24 26 -6z m19 -85 c3 -5 -1
-10 -10 -10 -9 0 -13 5 -10 10 3 6 8 10 10 10 2 0 7 -4 10 -10z"/>
<path d="M5788 3232 c-8 -18 -18 -29 -23 -25 -4 5 -5 3 -1 -4 4 -7 13 -10 21
-6 17 6 21 -22 5 -32 -11 -7 20 -74 35 -75 15 0 9 100 -8 140 l-16 35 -13 -33z"/>
<path d="M5905 3249 c-10 -15 3 -25 16 -12 7 7 7 13 1 17 -6 3 -14 1 -17 -5z"/>
<path d="M5951 3225 c-1 -23 -7 -47 -13 -54 -11 -10 -9 -15 7 -27 11 -8 19
-22 17 -30 -2 -8 5 -14 17 -14 17 0 18 5 14 43 -3 23 -14 60 -23 82 l-18 40
-1 -40z"/>
<path d="M2626 3231 c5 -5 20 -12 34 -16 24 -7 24 -7 5 9 -21 16 -56 23 -39 7z"/>
<path d="M2988 3220 c7 -17 17 -25 34 -25 14 0 32 -6 41 -13 25 -21 39 -4 17
18 -22 22 -50 27 -50 8 0 -6 -11 -1 -25 12 l-26 24 9 -24z"/>
<path d="M5860 3225 c0 -8 5 -15 10 -15 6 0 10 7 10 15 0 8 -4 15 -10 15 -5 0
-10 -7 -10 -15z"/>
<path d="M2725 3210 c3 -4 14 -10 25 -13 11 -3 18 -2 15 3 -3 4 -14 10 -25 13
-11 3 -18 2 -15 -3z"/>
<path d="M6082 3197 c-15 -16 -18 -27 -12 -37 7 -11 10 -12 10 -2 0 8 7 11 18
8 15 -5 19 -1 19 24 0 36 -7 37 -35 7z"/>
<path d="M2803 3190 c27 -22 37 -25 37 -12 0 8 -43 32 -57 32 -3 0 6 -9 20
-20z"/>
<path d="M3112 3178 c5 -15 28 -23 28 -10 0 5 -7 13 -16 16 -10 4 -14 1 -12
-6z"/>
<path d="M4050 3169 c0 -6 9 -13 20 -16 11 -3 20 -9 20 -13 0 -16 32 -20 52
-6 19 14 9 34 -12 21 -5 -3 -25 1 -45 9 -21 9 -35 11 -35 5z"/>
<path d="M6111 3134 c0 -11 3 -14 6 -6 3 7 2 16 -1 19 -3 4 -6 -2 -5 -13z"/>
<path d="M5920 3100 c0 -5 5 -10 10 -10 6 0 10 5 10 10 0 6 -4 10 -10 10 -5 0
-10 -4 -10 -10z"/>
<path d="M5855 3028 c-13 -29 -45 -35 -62 -12 -12 16 -13 16 -13 -9 0 -34 48
-61 91 -52 24 5 29 12 29 35 0 16 -7 36 -16 44 -19 20 -17 20 -29 -6z"/>
<path d="M5460 3020 c0 -5 4 -10 9 -10 6 0 13 5 16 10 3 6 -1 10 -9 10 -9 0
-16 -4 -16 -10z"/>
<path d="M6168 2863 c7 -3 16 -2 19 1 4 3 -2 6 -13 5 -11 0 -14 -3 -6 -6z"/>
<path d="M6030 2849 c-19 -8 -21 -12 -11 -19 14 -8 51 8 51 22 0 10 -9 9 -40
-3z"/>
<path d="M3713 2835 c-11 -8 -24 -27 -27 -41 l-7 -27 -30 36 c-47 57 -96 45
-114 -28 l-7 -30 -15 30 c-17 32 -51 64 -69 65 -19 0 -52 -35 -56 -60 -3 -23
-7 -25 -50 -22 -43 3 -49 1 -59 -22 -9 -20 -9 -39 -1 -78 8 -35 9 -74 3 -113
-9 -65 -2 -90 28 -100 42 -13 79 32 66 82 -18 73 -17 108 4 127 19 17 21 17
27 2 4 -9 1 -42 -5 -73 -16 -80 -14 -92 13 -103 13 -5 27 -14 31 -19 9 -16 47
-13 74 5 21 15 25 15 57 -2 27 -15 39 -16 66 -7 18 6 69 9 113 7 44 -3 134 -4
200 -4 100 0 124 3 144 18 34 25 38 42 9 42 -39 0 -51 14 -44 51 4 19 11 58
16 88 8 49 21 70 43 71 4 0 7 -9 7 -20 0 -11 5 -20 10 -20 6 0 10 11 10 25 0
25 18 33 36 16 12 -12 53 4 60 23 9 23 -9 47 -26 36 -13 -9 -13 -11 0 -20 12
-8 9 -10 -13 -10 -18 0 -26 4 -21 11 8 13 -13 29 -40 29 -14 0 -17 -5 -12 -25
7 -27 -11 -36 -20 -10 -4 8 -13 15 -21 15 -13 0 -13 -3 -3 -15 10 -12 10 -15
0 -15 -6 0 -14 9 -17 20 -7 25 -18 25 -44 -1 -16 -16 -23 -18 -35 -8 -11 9
-14 8 -14 -5 0 -9 -4 -16 -10 -16 -13 0 -44 49 -36 57 11 11 -36 53 -59 53
-23 0 -55 -28 -55 -48 0 -20 -15 -13 -38 18 -25 34 -38 37 -69 15z m311 -142
c6 -33 8 -73 7 -130 -1 -42 -2 -43 -35 -43 -31 0 -34 3 -40 39 -3 22 -2 51 4
66 5 14 10 42 10 61 0 29 3 34 24 34 19 0 26 -7 30 -27z m-474 -82 c0 -62 -15
-73 -37 -27 -16 34 -16 37 2 56 28 31 35 25 35 -29z m138 7 c-3 -36 -15 -42
-31 -17 -13 21 -2 49 18 49 12 0 15 -8 13 -32z m116 7 c3 -8 1 -15 -4 -15 -6
0 -10 7 -10 15 0 8 2 15 4 15 2 0 6 -7 10 -15z m102 -60 l2 -55 -34 0 c-40 0
-43 13 -14 70 29 57 45 51 46 -15z"/>
<path d="M6445 2790 c3 -5 8 -10 11 -10 2 0 4 5 4 10 0 6 -5 10 -11 10 -5 0
-7 -4 -4 -10z"/>
<path d="M4140 2658 c0 -7 7 -22 15 -32 16 -21 18 -15 9 22 -7 23 -24 31 -24
10z"/>
<path d="M4241 2594 c0 -11 3 -14 6 -6 3 7 2 16 -1 19 -3 4 -6 -2 -5 -13z"/>
<path d="M4150 2580 c0 -11 5 -20 10 -20 6 0 10 9 10 20 0 11 -4 20 -10 20 -5
0 -10 -9 -10 -20z"/>
<path d="M4155 2530 c-3 -5 -1 -10 4 -10 6 0 11 5 11 10 0 6 -2 10 -4 10 -3 0
-8 -4 -11 -10z"/>
</g>
</svg>
